<mxfile host="app.diagrams.net" modified="2024-01-29T20:38:15.496Z" agent="Mozilla/5.0 (X11; Linux x86_64) AppleWebKit/537.36 (KHTML, like Gecko) Chrome/118.0.0.0 Safari/537.36" etag="hsvvnlukxvAe185t1z_P" version="23.0.2" type="device">
  <diagram name="PÃ¡gina-1" id="XAZLi3gOjP9hYmibmETb">
    <mxGraphModel dx="2234" dy="798" grid="0" gridSize="10" guides="1" tooltips="1" connect="1" arrows="1" fold="1" page="0" pageScale="1" pageWidth="827" pageHeight="1169" math="0" shadow="0">
      <root>
        <mxCell id="0" />
        <mxCell id="1" parent="0" />
        <mxCell id="2SGhPV9VJ0NzomxN7u9--14" style="edgeStyle=orthogonalEdgeStyle;rounded=0;orthogonalLoop=1;jettySize=auto;html=1;" parent="1" source="2SGhPV9VJ0NzomxN7u9--1" target="2SGhPV9VJ0NzomxN7u9--13" edge="1">
          <mxGeometry relative="1" as="geometry" />
        </mxCell>
        <mxCell id="ck7Lqkc2XtPYcN9EQe9T-30" style="edgeStyle=orthogonalEdgeStyle;rounded=0;orthogonalLoop=1;jettySize=auto;html=1;" parent="1" source="2SGhPV9VJ0NzomxN7u9--1" target="ck7Lqkc2XtPYcN9EQe9T-24" edge="1">
          <mxGeometry relative="1" as="geometry" />
        </mxCell>
        <mxCell id="2SGhPV9VJ0NzomxN7u9--1" value="" style="html=1;verticalLabelPosition=bottom;align=center;labelBackgroundColor=#ffffff;verticalAlign=top;strokeWidth=2;strokeColor=#0080F0;shadow=0;dashed=0;shape=mxgraph.ios7.icons.user;" parent="1" vertex="1">
          <mxGeometry x="-20" y="628.75" width="60" height="60" as="geometry" />
        </mxCell>
        <mxCell id="ck7Lqkc2XtPYcN9EQe9T-19" style="edgeStyle=orthogonalEdgeStyle;rounded=0;orthogonalLoop=1;jettySize=auto;html=1;exitX=0.5;exitY=0;exitDx=0;exitDy=0;exitPerimeter=0;" parent="1" source="2SGhPV9VJ0NzomxN7u9--2" target="2SGhPV9VJ0NzomxN7u9--8" edge="1">
          <mxGeometry relative="1" as="geometry" />
        </mxCell>
        <mxCell id="2SGhPV9VJ0NzomxN7u9--2" value="" style="outlineConnect=0;dashed=0;verticalLabelPosition=bottom;verticalAlign=top;align=center;html=1;shape=mxgraph.aws3.cognito;fillColor=#AD688B;gradientColor=none;" parent="1" vertex="1">
          <mxGeometry x="742.13" y="117" width="76.5" height="93" as="geometry" />
        </mxCell>
        <mxCell id="ck7Lqkc2XtPYcN9EQe9T-20" style="edgeStyle=orthogonalEdgeStyle;rounded=0;orthogonalLoop=1;jettySize=auto;html=1;exitX=0;exitY=0.5;exitDx=0;exitDy=0;exitPerimeter=0;" parent="1" source="2SGhPV9VJ0NzomxN7u9--8" target="2SGhPV9VJ0NzomxN7u9--11" edge="1">
          <mxGeometry relative="1" as="geometry" />
        </mxCell>
        <mxCell id="2SGhPV9VJ0NzomxN7u9--8" value="" style="strokeWidth=2;html=1;shape=mxgraph.flowchart.database;whiteSpace=wrap;fillColor=#f5f5f5;strokeColor=#666666;fontColor=#333333;" parent="1" vertex="1">
          <mxGeometry x="750.25" y="10" width="60" height="60" as="geometry" />
        </mxCell>
        <mxCell id="2SGhPV9VJ0NzomxN7u9--11" value="&lt;div style=&quot;text-align: left;&quot;&gt;&lt;span style=&quot;background-color: initial;&quot;&gt;E-mail: valid@email.com&lt;/span&gt;&lt;/div&gt;&lt;div style=&quot;text-align: left;&quot;&gt;&lt;span style=&quot;background-color: initial;&quot;&gt;Password: 123456&lt;/span&gt;&lt;/div&gt;" style="rounded=1;whiteSpace=wrap;html=1;" parent="1" vertex="1">
          <mxGeometry x="530" y="10" width="170" height="60" as="geometry" />
        </mxCell>
        <mxCell id="2SGhPV9VJ0NzomxN7u9--13" value="&lt;div style=&quot;&quot;&gt;access_token&lt;br&gt;&lt;/div&gt;" style="rounded=1;whiteSpace=wrap;html=1;align=center;" parent="1" vertex="1">
          <mxGeometry x="-271" y="532.13" width="170" height="60" as="geometry" />
        </mxCell>
        <mxCell id="2SGhPV9VJ0NzomxN7u9--16" value="&lt;b&gt;Access Token&lt;/b&gt;" style="text;html=1;align=center;verticalAlign=middle;resizable=0;points=[];autosize=1;strokeColor=none;fillColor=none;" parent="1" vertex="1">
          <mxGeometry x="-260" y="250" width="100" height="30" as="geometry" />
        </mxCell>
        <mxCell id="2SGhPV9VJ0NzomxN7u9--26" style="edgeStyle=orthogonalEdgeStyle;rounded=0;orthogonalLoop=1;jettySize=auto;html=1;" parent="1" source="2SGhPV9VJ0NzomxN7u9--18" target="2SGhPV9VJ0NzomxN7u9--22" edge="1">
          <mxGeometry relative="1" as="geometry" />
        </mxCell>
        <mxCell id="2SGhPV9VJ0NzomxN7u9--27" style="edgeStyle=orthogonalEdgeStyle;rounded=0;orthogonalLoop=1;jettySize=auto;html=1;" parent="1" source="2SGhPV9VJ0NzomxN7u9--18" target="2SGhPV9VJ0NzomxN7u9--24" edge="1">
          <mxGeometry relative="1" as="geometry" />
        </mxCell>
        <mxCell id="2SGhPV9VJ0NzomxN7u9--28" style="edgeStyle=orthogonalEdgeStyle;rounded=0;orthogonalLoop=1;jettySize=auto;html=1;exitX=0.5;exitY=0;exitDx=0;exitDy=0;exitPerimeter=0;" parent="1" source="2SGhPV9VJ0NzomxN7u9--18" target="2SGhPV9VJ0NzomxN7u9--19" edge="1">
          <mxGeometry relative="1" as="geometry" />
        </mxCell>
        <mxCell id="2SGhPV9VJ0NzomxN7u9--18" value="" style="outlineConnect=0;dashed=0;verticalLabelPosition=bottom;verticalAlign=top;align=center;html=1;shape=mxgraph.aws3.api_gateway;fillColor=#D9A741;gradientColor=none;" parent="1" vertex="1">
          <mxGeometry x="320.25" y="610" width="76.5" height="93" as="geometry" />
        </mxCell>
        <mxCell id="2SGhPV9VJ0NzomxN7u9--32" style="edgeStyle=orthogonalEdgeStyle;rounded=0;orthogonalLoop=1;jettySize=auto;html=1;exitX=0.5;exitY=0;exitDx=0;exitDy=0;exitPerimeter=0;entryX=0;entryY=0.5;entryDx=0;entryDy=0;entryPerimeter=0;" parent="1" source="2SGhPV9VJ0NzomxN7u9--19" target="2SGhPV9VJ0NzomxN7u9--2" edge="1">
          <mxGeometry relative="1" as="geometry" />
        </mxCell>
        <mxCell id="ck7Lqkc2XtPYcN9EQe9T-16" value="&lt;b&gt;Is Token Valid ?&lt;/b&gt;" style="edgeLabel;html=1;align=center;verticalAlign=middle;resizable=0;points=[];" parent="2SGhPV9VJ0NzomxN7u9--32" vertex="1" connectable="0">
          <mxGeometry x="-0.4873" relative="1" as="geometry">
            <mxPoint x="177" y="-39" as="offset" />
          </mxGeometry>
        </mxCell>
        <mxCell id="2SGhPV9VJ0NzomxN7u9--19" value="" style="outlineConnect=0;dashed=0;verticalLabelPosition=bottom;verticalAlign=top;align=center;html=1;shape=mxgraph.aws3.lambda_function;fillColor=#F58534;gradientColor=none;" parent="1" vertex="1">
          <mxGeometry x="324" y="341" width="69" height="72" as="geometry" />
        </mxCell>
        <mxCell id="2SGhPV9VJ0NzomxN7u9--20" value="Authorizer" style="text;html=1;align=center;verticalAlign=middle;resizable=0;points=[];autosize=1;strokeColor=none;fillColor=none;" parent="1" vertex="1">
          <mxGeometry x="396.75" y="362" width="80" height="30" as="geometry" />
        </mxCell>
        <mxCell id="ck7Lqkc2XtPYcN9EQe9T-7" style="edgeStyle=orthogonalEdgeStyle;rounded=0;orthogonalLoop=1;jettySize=auto;html=1;" parent="1" source="2SGhPV9VJ0NzomxN7u9--22" target="ck7Lqkc2XtPYcN9EQe9T-4" edge="1">
          <mxGeometry relative="1" as="geometry" />
        </mxCell>
        <mxCell id="2SGhPV9VJ0NzomxN7u9--22" value="" style="sketch=0;outlineConnect=0;fontColor=#232F3E;gradientColor=none;fillColor=#B0084D;strokeColor=none;dashed=0;verticalLabelPosition=bottom;verticalAlign=top;align=center;html=1;fontSize=12;fontStyle=0;aspect=fixed;pointerEvents=1;shape=mxgraph.aws4.endpoint;" parent="1" vertex="1">
          <mxGeometry x="496" y="546" width="78" height="78" as="geometry" />
        </mxCell>
        <mxCell id="2SGhPV9VJ0NzomxN7u9--23" value="Public Endpoint" style="text;html=1;align=center;verticalAlign=middle;resizable=0;points=[];autosize=1;strokeColor=none;fillColor=none;" parent="1" vertex="1">
          <mxGeometry x="480" y="510" width="110" height="30" as="geometry" />
        </mxCell>
        <mxCell id="ck7Lqkc2XtPYcN9EQe9T-8" style="edgeStyle=orthogonalEdgeStyle;rounded=0;orthogonalLoop=1;jettySize=auto;html=1;entryX=0;entryY=0.5;entryDx=0;entryDy=0;" parent="1" source="2SGhPV9VJ0NzomxN7u9--24" target="ck7Lqkc2XtPYcN9EQe9T-6" edge="1">
          <mxGeometry relative="1" as="geometry" />
        </mxCell>
        <mxCell id="2SGhPV9VJ0NzomxN7u9--24" value="" style="sketch=0;outlineConnect=0;fontColor=#232F3E;gradientColor=none;fillColor=#B0084D;strokeColor=none;dashed=0;verticalLabelPosition=bottom;verticalAlign=top;align=center;html=1;fontSize=12;fontStyle=0;aspect=fixed;pointerEvents=1;shape=mxgraph.aws4.endpoint;" parent="1" vertex="1">
          <mxGeometry x="496" y="685.5" width="78" height="78" as="geometry" />
        </mxCell>
        <mxCell id="2SGhPV9VJ0NzomxN7u9--25" value="Protected Endpoint" style="text;html=1;align=center;verticalAlign=middle;resizable=0;points=[];autosize=1;strokeColor=none;fillColor=none;" parent="1" vertex="1">
          <mxGeometry x="470" y="650" width="130" height="30" as="geometry" />
        </mxCell>
        <mxCell id="2SGhPV9VJ0NzomxN7u9--30" value="&lt;b&gt;Request Protected Resource&lt;/b&gt;" style="text;html=1;align=center;verticalAlign=middle;resizable=0;points=[];autosize=1;strokeColor=none;fillColor=none;rotation=0;" parent="1" vertex="1">
          <mxGeometry x="70" y="703" width="190" height="30" as="geometry" />
        </mxCell>
        <mxCell id="2SGhPV9VJ0NzomxN7u9--31" value="&lt;div style=&quot;color: rgb(212, 212, 212); background-color: rgb(30, 30, 30); font-weight: normal; font-size: 12px; line-height: 18px;&quot;&gt;&lt;div&gt;&lt;span style=&quot;color: #d4d4d4;&quot;&gt;curl &lt;/span&gt;&lt;span style=&quot;color: #dcdcdc;&quot;&gt;--&lt;/span&gt;&lt;span style=&quot;color: #d4d4d4;&quot;&gt;location &lt;/span&gt;&lt;span style=&quot;color: #e6db74;&quot;&gt;&#39;https://example.com/protected&#39;&lt;/span&gt;&lt;span style=&quot;color: #d4d4d4;&quot;&gt; \&lt;/span&gt;&lt;/div&gt;&lt;div&gt;&lt;span style=&quot;color: #dcdcdc;&quot;&gt;--&lt;/span&gt;&lt;span style=&quot;color: #d4d4d4;&quot;&gt;header &lt;/span&gt;&lt;span style=&quot;color: #e6db74;&quot;&gt;&#39;Authorization: Bearer ACCESS_TOKEN&#39;&lt;/span&gt;&lt;/div&gt;&lt;/div&gt;" style="text;whiteSpace=wrap;html=1;" parent="1" vertex="1">
          <mxGeometry x="25" y="739.5" width="280" height="60" as="geometry" />
        </mxCell>
        <mxCell id="2SGhPV9VJ0NzomxN7u9--34" value="&lt;b&gt;Cognito&lt;/b&gt;" style="text;html=1;align=center;verticalAlign=middle;resizable=0;points=[];autosize=1;strokeColor=none;fillColor=none;" parent="1" vertex="1">
          <mxGeometry x="680" y="200" width="70" height="30" as="geometry" />
        </mxCell>
        <mxCell id="2SGhPV9VJ0NzomxN7u9--35" value="&lt;b&gt;Lambda&lt;/b&gt;" style="text;html=1;align=center;verticalAlign=middle;resizable=0;points=[];autosize=1;strokeColor=none;fillColor=none;" parent="1" vertex="1">
          <mxGeometry x="405" y="332" width="70" height="30" as="geometry" />
        </mxCell>
        <mxCell id="2SGhPV9VJ0NzomxN7u9--36" value="&lt;b&gt;API Gateway&lt;/b&gt;" style="text;html=1;align=center;verticalAlign=middle;resizable=0;points=[];autosize=1;strokeColor=none;fillColor=none;" parent="1" vertex="1">
          <mxGeometry x="305" y="709.5" width="100" height="30" as="geometry" />
        </mxCell>
        <mxCell id="2SGhPV9VJ0NzomxN7u9--37" value="&lt;b&gt;User&lt;/b&gt;" style="text;html=1;align=center;verticalAlign=middle;resizable=0;points=[];autosize=1;strokeColor=none;fillColor=none;" parent="1" vertex="1">
          <mxGeometry x="-20" y="588.5" width="50" height="30" as="geometry" />
        </mxCell>
        <mxCell id="ck7Lqkc2XtPYcN9EQe9T-2" value="&lt;b&gt;EKS&lt;/b&gt;" style="sketch=0;points=[[0,0,0],[0.25,0,0],[0.5,0,0],[0.75,0,0],[1,0,0],[0,1,0],[0.25,1,0],[0.5,1,0],[0.75,1,0],[1,1,0],[0,0.25,0],[0,0.5,0],[0,0.75,0],[1,0.25,0],[1,0.5,0],[1,0.75,0]];outlineConnect=0;fontColor=#232F3E;fillColor=#ED7100;strokeColor=#ffffff;dashed=0;verticalLabelPosition=bottom;verticalAlign=top;align=center;html=1;fontSize=12;fontStyle=0;aspect=fixed;shape=mxgraph.aws4.resourceIcon;resIcon=mxgraph.aws4.eks;" parent="1" vertex="1">
          <mxGeometry x="1018" y="609.5" width="78" height="78" as="geometry" />
        </mxCell>
        <mxCell id="ck7Lqkc2XtPYcN9EQe9T-4" value="&lt;div style=&quot;&quot;&gt;&lt;b style=&quot;background-color: initial; border-color: var(--border-color);&quot;&gt;&lt;b style=&quot;border-color: var(--border-color);&quot;&gt;/&lt;/b&gt;login&lt;/b&gt;&lt;/div&gt;&lt;b style=&quot;border-color: var(--border-color);&quot;&gt;&lt;div style=&quot;&quot;&gt;&lt;b style=&quot;background-color: initial; border-color: var(--border-color);&quot;&gt;/v1&lt;/b&gt;&lt;b style=&quot;background-color: initial;&quot;&gt;/totem/customer&lt;/b&gt;&lt;/div&gt;&lt;/b&gt;&lt;b&gt;&lt;div style=&quot;&quot;&gt;&lt;b style=&quot;background-color: initial;&quot;&gt;/v1/totem/customer/:customerId/code/:code&lt;/b&gt;&lt;/div&gt;&lt;/b&gt;" style="text;html=1;strokeColor=none;fillColor=#E6E6E6;align=center;verticalAlign=middle;whiteSpace=wrap;rounded=0;" parent="1" vertex="1">
          <mxGeometry x="630" y="555.5" width="300" height="60" as="geometry" />
        </mxCell>
        <mxCell id="ck7Lqkc2XtPYcN9EQe9T-6" value="&lt;div style=&quot;&quot;&gt;&lt;b style=&quot;background-color: initial; border-color: var(--border-color);&quot;&gt;/v1/{proxy+}&lt;/b&gt;&lt;/div&gt;" style="text;html=1;strokeColor=none;fillColor=#E6E6E6;align=center;verticalAlign=middle;whiteSpace=wrap;rounded=0;" parent="1" vertex="1">
          <mxGeometry x="630" y="711.75" width="300" height="25.5" as="geometry" />
        </mxCell>
        <mxCell id="ck7Lqkc2XtPYcN9EQe9T-9" style="edgeStyle=orthogonalEdgeStyle;rounded=0;orthogonalLoop=1;jettySize=auto;html=1;exitX=1;exitY=0.5;exitDx=0;exitDy=0;entryX=0;entryY=0.5;entryDx=0;entryDy=0;entryPerimeter=0;" parent="1" source="ck7Lqkc2XtPYcN9EQe9T-4" target="ck7Lqkc2XtPYcN9EQe9T-2" edge="1">
          <mxGeometry relative="1" as="geometry" />
        </mxCell>
        <mxCell id="ck7Lqkc2XtPYcN9EQe9T-10" style="edgeStyle=orthogonalEdgeStyle;rounded=0;orthogonalLoop=1;jettySize=auto;html=1;exitX=1;exitY=0.5;exitDx=0;exitDy=0;entryX=0;entryY=0.5;entryDx=0;entryDy=0;entryPerimeter=0;" parent="1" source="ck7Lqkc2XtPYcN9EQe9T-6" target="ck7Lqkc2XtPYcN9EQe9T-2" edge="1">
          <mxGeometry relative="1" as="geometry" />
        </mxCell>
        <mxCell id="ck7Lqkc2XtPYcN9EQe9T-11" value="Totem-Food-Customer-Service" style="sketch=0;html=1;dashed=0;whitespace=wrap;fillColor=#2875E2;strokeColor=#ffffff;points=[[0.005,0.63,0],[0.1,0.2,0],[0.9,0.2,0],[0.5,0,0],[0.995,0.63,0],[0.72,0.99,0],[0.5,1,0],[0.28,0.99,0]];verticalLabelPosition=bottom;align=center;verticalAlign=top;shape=mxgraph.kubernetes.icon;prIcon=pod" parent="1" vertex="1">
          <mxGeometry x="1247" y="519" width="50" height="48" as="geometry" />
        </mxCell>
        <mxCell id="ck7Lqkc2XtPYcN9EQe9T-12" style="edgeStyle=orthogonalEdgeStyle;rounded=0;orthogonalLoop=1;jettySize=auto;html=1;exitX=1;exitY=0.5;exitDx=0;exitDy=0;exitPerimeter=0;entryX=0.005;entryY=0.63;entryDx=0;entryDy=0;entryPerimeter=0;" parent="1" source="ck7Lqkc2XtPYcN9EQe9T-2" target="ck7Lqkc2XtPYcN9EQe9T-11" edge="1">
          <mxGeometry relative="1" as="geometry" />
        </mxCell>
        <mxCell id="ck7Lqkc2XtPYcN9EQe9T-18" style="edgeStyle=orthogonalEdgeStyle;rounded=0;orthogonalLoop=1;jettySize=auto;html=1;exitX=0.5;exitY=0;exitDx=0;exitDy=0;exitPerimeter=0;" parent="1" source="ck7Lqkc2XtPYcN9EQe9T-13" target="2SGhPV9VJ0NzomxN7u9--2" edge="1">
          <mxGeometry relative="1" as="geometry" />
        </mxCell>
        <mxCell id="ck7Lqkc2XtPYcN9EQe9T-13" value="" style="outlineConnect=0;dashed=0;verticalLabelPosition=bottom;verticalAlign=top;align=center;html=1;shape=mxgraph.aws3.lambda_function;fillColor=#F58534;gradientColor=none;" parent="1" vertex="1">
          <mxGeometry x="746.25" y="341" width="69" height="72" as="geometry" />
        </mxCell>
        <mxCell id="ck7Lqkc2XtPYcN9EQe9T-14" value="Login" style="text;html=1;align=center;verticalAlign=middle;resizable=0;points=[];autosize=1;strokeColor=none;fillColor=none;" parent="1" vertex="1">
          <mxGeometry x="854" y="362" width="50" height="30" as="geometry" />
        </mxCell>
        <mxCell id="ck7Lqkc2XtPYcN9EQe9T-15" value="&lt;b&gt;Lambda&lt;/b&gt;" style="text;html=1;align=center;verticalAlign=middle;resizable=0;points=[];autosize=1;strokeColor=none;fillColor=none;" parent="1" vertex="1">
          <mxGeometry x="844" y="332" width="70" height="30" as="geometry" />
        </mxCell>
        <mxCell id="ck7Lqkc2XtPYcN9EQe9T-17" style="edgeStyle=orthogonalEdgeStyle;rounded=0;orthogonalLoop=1;jettySize=auto;html=1;exitX=0.5;exitY=0;exitDx=0;exitDy=0;entryX=0.5;entryY=1;entryDx=0;entryDy=0;entryPerimeter=0;" parent="1" source="ck7Lqkc2XtPYcN9EQe9T-4" target="ck7Lqkc2XtPYcN9EQe9T-13" edge="1">
          <mxGeometry relative="1" as="geometry" />
        </mxCell>
        <mxCell id="ck7Lqkc2XtPYcN9EQe9T-22" value="&lt;b&gt;Is Login Correct?&lt;/b&gt;" style="edgeLabel;html=1;align=center;verticalAlign=middle;resizable=0;points=[];" parent="ck7Lqkc2XtPYcN9EQe9T-17" vertex="1" connectable="0">
          <mxGeometry x="0.1487" y="4" relative="1" as="geometry">
            <mxPoint as="offset" />
          </mxGeometry>
        </mxCell>
        <mxCell id="ck7Lqkc2XtPYcN9EQe9T-21" style="edgeStyle=orthogonalEdgeStyle;rounded=0;orthogonalLoop=1;jettySize=auto;html=1;exitX=0.5;exitY=0;exitDx=0;exitDy=0;exitPerimeter=0;entryX=1;entryY=0.5;entryDx=0;entryDy=0;entryPerimeter=0;" parent="1" source="ck7Lqkc2XtPYcN9EQe9T-11" target="2SGhPV9VJ0NzomxN7u9--2" edge="1">
          <mxGeometry relative="1" as="geometry" />
        </mxCell>
        <mxCell id="ck7Lqkc2XtPYcN9EQe9T-23" value="&lt;b style=&quot;border-color: var(--border-color);&quot;&gt;CRUD User Cognito&lt;/b&gt;" style="edgeLabel;html=1;align=center;verticalAlign=middle;resizable=0;points=[];" parent="ck7Lqkc2XtPYcN9EQe9T-21" vertex="1" connectable="0">
          <mxGeometry x="-0.467" y="-3" relative="1" as="geometry">
            <mxPoint as="offset" />
          </mxGeometry>
        </mxCell>
        <mxCell id="ck7Lqkc2XtPYcN9EQe9T-24" value="" style="ellipse;whiteSpace=wrap;html=1;aspect=fixed;" parent="1" vertex="1">
          <mxGeometry x="81" y="639" width="39.5" height="39.5" as="geometry" />
        </mxCell>
        <mxCell id="ck7Lqkc2XtPYcN9EQe9T-25" style="edgeStyle=orthogonalEdgeStyle;rounded=0;orthogonalLoop=1;jettySize=auto;html=1;exitX=0.5;exitY=1;exitDx=0;exitDy=0;" parent="1" source="ck7Lqkc2XtPYcN9EQe9T-24" edge="1">
          <mxGeometry relative="1" as="geometry">
            <mxPoint x="320" y="657" as="targetPoint" />
          </mxGeometry>
        </mxCell>
        <mxCell id="ck7Lqkc2XtPYcN9EQe9T-26" style="edgeStyle=orthogonalEdgeStyle;rounded=0;orthogonalLoop=1;jettySize=auto;html=1;exitX=0.5;exitY=0;exitDx=0;exitDy=0;" parent="1" source="ck7Lqkc2XtPYcN9EQe9T-24" target="2SGhPV9VJ0NzomxN7u9--18" edge="1">
          <mxGeometry relative="1" as="geometry" />
        </mxCell>
        <mxCell id="ck7Lqkc2XtPYcN9EQe9T-28" value="&lt;b&gt;Request Login&lt;/b&gt;" style="text;html=1;align=center;verticalAlign=middle;resizable=0;points=[];autosize=1;strokeColor=none;fillColor=none;rotation=0;" parent="1" vertex="1">
          <mxGeometry x="110" y="585.5" width="110" height="30" as="geometry" />
        </mxCell>
        <mxCell id="ck7Lqkc2XtPYcN9EQe9T-29" value="&lt;div style=&quot;color: rgb(212, 212, 212); background-color: rgb(30, 30, 30); font-weight: normal; font-size: 12px; line-height: 18px;&quot;&gt;&lt;div&gt;&lt;span style=&quot;color: #d4d4d4;&quot;&gt;curl &lt;/span&gt;&lt;span style=&quot;color: #dcdcdc;&quot;&gt;--&lt;/span&gt;&lt;span style=&quot;color: #d4d4d4;&quot;&gt;location &lt;/span&gt;&lt;span style=&quot;color: #e6db74;&quot;&gt;&#39;https://example.com/login&#39;&lt;/span&gt;&lt;span style=&quot;color: #d4d4d4;&quot;&gt; \&lt;/span&gt;&lt;/div&gt;&lt;div&gt;&lt;span style=&quot;color: #dcdcdc;&quot;&gt;--&lt;/span&gt;&lt;span style=&quot;color: #d4d4d4;&quot;&gt;header &lt;/span&gt;&lt;span style=&quot;color: #e6db74;&quot;&gt;&#39;x-anonymous-user: false&#39;&lt;/span&gt;&lt;span style=&quot;color: #d4d4d4;&quot;&gt; \&lt;/span&gt;&lt;/div&gt;&lt;div&gt;&lt;span style=&quot;color: #dcdcdc;&quot;&gt;--&lt;/span&gt;&lt;span style=&quot;color: #d4d4d4;&quot;&gt;header &lt;/span&gt;&lt;span style=&quot;color: #e6db74;&quot;&gt;&#39;Content-Type: application/json&#39;&lt;/span&gt;&lt;span style=&quot;color: #d4d4d4;&quot;&gt; \&lt;/span&gt;&lt;/div&gt;&lt;div&gt;&lt;span style=&quot;color: #dcdcdc;&quot;&gt;--&lt;/span&gt;&lt;span style=&quot;color: #f92672;&quot;&gt;data&lt;/span&gt;&lt;span style=&quot;color: #d4d4d4;&quot;&gt; &lt;/span&gt;&lt;span style=&quot;color: #e6db74;&quot;&gt;&#39;{&lt;/span&gt;&lt;/div&gt;&lt;div&gt;&lt;span style=&quot;color: #d4d4d4;&quot;&gt;    &lt;/span&gt;&lt;span style=&quot;color: #e6db74;&quot;&gt;&quot;username&quot;&lt;/span&gt;&lt;span style=&quot;color: #d4d4d4;&quot;&gt;: &lt;/span&gt;&lt;span style=&quot;color: #e6db74;&quot;&gt;&quot;12345678910&quot;&lt;/span&gt;&lt;span style=&quot;color: #dcdcdc;&quot;&gt;,&lt;/span&gt;&lt;/div&gt;&lt;div&gt;&lt;span style=&quot;color: #d4d4d4;&quot;&gt;    &lt;/span&gt;&lt;span style=&quot;color: #e6db74;&quot;&gt;&quot;password&quot;&lt;/span&gt;&lt;span style=&quot;color: #d4d4d4;&quot;&gt;: &lt;/span&gt;&lt;span style=&quot;color: #e6db74;&quot;&gt;&quot;123456&quot;&lt;/span&gt;&lt;/div&gt;&lt;div&gt;&lt;span style=&quot;color: #dcdcdc;&quot;&gt;}&lt;/span&gt;&lt;span style=&quot;color: #e6db74;&quot;&gt;&#39;&lt;/span&gt;&lt;/div&gt;&lt;/div&gt;" style="text;whiteSpace=wrap;html=1;" parent="1" vertex="1">
          <mxGeometry x="60" y="435" width="230" height="150" as="geometry" />
        </mxCell>
        <mxCell id="ck7Lqkc2XtPYcN9EQe9T-33" value="" style="shape=image;verticalLabelPosition=bottom;labelBackgroundColor=default;verticalAlign=top;aspect=fixed;imageAspect=0;image=data:image/png,iVBORw0KGgoAAAANSUhEUgAAAkEAAAFGCAIAAADii9zfAAAACXBIWXMAAA7EAAAOxAGVKw4bAAAgAElEQVR4nOydeZgU1bn/PzXds7GIxtyI1w017ivEJS5ZXC7GaFyDCUaMS0hMNFc016g3aq5irnrFGIyaCAIGDBghUQlwowl6jfvCiBGFkVEwSBjzE5mtp5eq6u/vj6rqrt6bYYBpPZ9nnnm6zvaec+pUvVXnvHVeSxIhWlpaRo0ahcFgMBgMA5WMqqrb2jUxGAwGg6GPGB1mMBgMhlrF6DCDwWAw1CpGhxkMBoOhVokWBrW0tGz5ehgMBoPBsLEU0WHGLtFgMBgMA5nMu5aZSzQYDAZDrWJ0mMFgMBhqFaPDDAaDwVCrGB1mMBgMhlrF6DCDwWAw1CpGhxkMBoOhVjE6zGAwGAy1itFhBoPBYKhVjA4zGAwGQ61idJjBYDAYapWN1mEf/fzLg6PNjds0b7fddtv966ivXfO/f08DpGmfd9yQz1jjpyURieU/3HuXk+asDnI58y86Yo//ftrmo59/edCZj+SVqWW/vfnso/b6dHPjdjseMvqyW17oDMf+42dHbmvtf/4rQWISC79qWYOam4Zut+2/7PjZE75z9aLVlGf98w/d9+upU6dOnTp1xsx5C/66bG0yFLv2md/d++sHWzYAdLT8cdrUKdOnTp3661//+tdTpk+dMn3qlP9dGc9LZjAYDIYBQF/ew/S12cmu+IYNGzYsvf1zj15w6tQPgLr35/1m5elnn/yX3/6+06Jpv1vvPPul//zRgk5AycXXf2/piN/86Ev1xYp7c9LXjrh+8RE3zGvd0LX6+QfGxuf/23HfWuwrGZeWB6fUnTV+2HO/eioW5LAYdNhtqxPdGzral//5sh3euPj4wx5YXb7ODfX7Hjd+/Pjx4y8466i9E28+8YcX3nV9Cf9c/ndr390jK1b+A9h21NcuHv/di8aPH/3Zxm1GnXLR+O9eNP67J+/VnJfMYDAYDAOATZtL/MwJF3xl+LqX3wLW3T/rnbOumvStQ9t/9fvVwOBTfnb359sunvRHN7H8P698+OQ7ZnyhsbAA0bHoqtuWXjh7wdUnH7J9U+Ow3UdeOG3hTds8f+k9bwAQefLBh7cdc8313zpoxm8fShbkj2y7+5k/++Mvv+xeeM98aBm/feFLXh7WkJ32Gj36yLplLW/2AjjvLn9vuz2OPXS/9Mq31pbOVmUyg8FgMGxBNkmHue/+/lcLP9jzi6Ncnn/w16ljv3fo4DPO++Kzv/3VGoCm8/77hj3v++EPLr78/sP/647jBhctgSXP/u+QL5zz+XDsp8455ZDW5/4YQySenz6v8dvf+uwuX//6sfOnPtRZrAys0084hOf+/C77/vvcx244qmK1Lbbbaefm9e0fOOCsXP7Ojnsd0LDDZz8bWd36d6dEliqTGQwGg2FL0hcdZv3x3Obm5sZtmrf/8h2tF83547eHRZ568MFh4y48AA0+5dtjVs6fsgKIsPvZ9/9wjylP9tz5s3Hb9aVyVmzhzN8edPz5O9Qx/OzzR62/9/ery6YfdNDx/zZyePXli+533ur41N57NMOQ/ff+TNvyN+2+JzMYDAbDFqaI/7CK6Guz44+cmT0k8eTdD//t3djxzT8BZCU+86ffPjlx4vHg7H/053nkwyN3KFVUhM8de/I/Zz78YuxL2Vex9Y8sfH2f064eTHzq1Hl1T8d2aZ4EQEPCvuPdi+7ao6A+8xe8zjE3FoSXrD8bVq+Nb7/vDvUdy5b9v95/PjX1V08BWOmIs7L3kP0H5aW3OpZXk8xgMBgMW5i+6LA8rM7fz/zDkVf+Y+EdOwK4PP+zId/6+eLrjj+hyAJYfl62PfnWa/f6wrlf3WPa/Rcft1e0/bW5E39wbdeR8y8+glXT72s5eFb7k+cOA0TihW/s/K0pK+66dUQ2v9uxav7tV33/pciMW06D3jeefM7Zv/yrmHrWrnzh2Rb3wC8dMKjzxXe79/na+ON28nrBfXP+A8tXbtj/kLyXxs43q0pmMBgMhi1MP3wflpgxa/Ho867Z0T+McPR5V2yz/N4nYyXSW388t3GbZu9vhzMf6T34uoXP/Oexz1x5ym7NzTuMHPNg8oxFTz10/LDIWw8+uOSc8d8Y5uei6ehLzhk6ddp8EL2vXj2iaeh22w7f79/u/mDPB5589YIRwIq7xpx+0wtFhabsFU95tvWPPPt24wGjzzpq98jaFa3WrvvvlFHjkb33G/HRyje7cjKKqpIZDAaDYctjSQoft7S0jBo1amvVxmAwGAyGimRUldmnw2AwGAy1itFhBoPBYKhVjA4zGAwGQ61idJjBYDAYahWjwwwGg8FQqxgdZjAYDIZaxegwg8FgMNQqRocZDAaDoVYxOsxgMBgMtYrRYQaDwWCoVYrs+dvS0rLl62EwGAwGw8ZSRIeZ/RINBoPBMJDJvGuZuUSDwWAw1CpGhxkMBoOhVjE6zGAwGAy1itFhBoPBYKhVjA4zGAwGQ61idJjBYDAYahWjwwwGg8FQqxgdZjAYDIZaxegwg8FgMNQqRocZDAaDoVYxOsxgMBgMtYrRYQaDwWCoVYwOMxgMBkOtYnSYwWAwGGoVo8MMBoPBUKsYHWYwGAyGWsXoMIPBYDDUKkaHGQwGg6FWMTrMYDAYDLWK0WEGg8FgqFUGng6bQ7wB1wWLzpUFsffgWnSnN1nK6cRugzbY9NKKFjUX16Jj0+u5WZmHYxErDG8Hi65/bPH6OGARm7GZpSwrMbQyWMR+vpnrYDAY+omBp8PAOoCIANRUEPclIr+kqT9qrW38H3Xa4kW9DxZdrxWEO1v2BnoZyVsZXBj+O5LQ/K9bqhoZojCJyDEF4TP79YFgF/gpTTv0U2k1RKlRZzDUMtGtXYFi7BT8GFIQdSAcSH1/CLGG+j/qIgOoqC3HevgA+9xiURNwZhXTbVuAH1H43NLPDIP/onFzSzEYDFuEgfceNpKGH0IU7qUxeL/xXlBcC9fCtujMeyS/2Y9NWyQXh8JXgAUWjoXzTRLJUNT3qD8C/gUeKNCIDljYRSfZilK6qG0fCqq9G/EuADrBwt0FFwaPwrVwLDZ4zbFw63Gh6Ud+S7v/CsB6sND5fkPcg4OiPOaDRdrCsUhNxsmr2zgci+6is4IPkYLmXQrCVwCkTw+FJODMkPSPQlEPhqQ/Hgp/0W+4Y8GJxBuCilnE74Ld/NIS84L00/0muxaxu0LlLAIL99sAQyO4FnGL7GksJb0UX8xK6XwjN2pq0MDjQ4Hle74oT0DmhALnkLCwM7GlBmopHPhOVnoi3PO3Zq+I5Dyy7/9Fx3yZUWcw1DrKZcmSJRqYrJSWSTfJRh1uKHya0ii+QGqTLlYada6VJNkSSpwgt1V6UkKxC5SuRpAtoSTqdTahtg/LRcmjlF4iLZJQzxVBVEJaLqGu56UeKRGEx6UOCfXc6of7tf1QQomjZa+XVkoofoLsTJ+gxCSpTZohoe5Hc6sxWjbqfq9YDVHP9GLhlyt+Qm5HHaYUsl+SlkooTlDlxyWUuEdaLd2gNOp8K1vh5FFKvy5NkVCsKagwslFqmrRMOkMO6vhIktQhLfPL75mcW5+EdJ8c1NWV212lpJdhnbRMekJCHX8Lhb8goeRN0jLpCgn13JFtSPGeL8XjEvooMz7HKI5S3u9SA7UMp8n2en6ZPyb91s8MilojTZRQx7uSyo75UqPOYKhNMqqqdnSYx28KdNjlIX1jS3cp8b4kKZ57T39F+l2lG1A/8rActCEZHF6oBKH7xhoJdbYU5LJDN9AMH0qo8+XgcK7S6KNeSdJiCW34IIiaJ/ul6qq3Usroj4IKdD0eClknoa6ng8PlEurulCSh+CkhbYd6xyotaZoc1BULwk9Tb31Wh/VeHYR35JYcSM/XYZJ+IwdtcHMDS0mvyJoCHTY6pGnsfB1WvOdLUUaHlRqo5ev5dnC4XMqovXVKtwXhtoS650iqNOZLjTqDoQbJqKqBN5e4sUygARqi8B3ST+P8kEZvOa0JrmfwGaR3Rb/A2QXO2eKrfxl5O2HBpkzeKFPUYVgQWQ3AFwGG7AAno9k4pxI9orrifkPiUAZvVxD+IkD6xFDIWwDO4cHhviCGbIM3OeiejZVJeRWROaSAV3CgYVAQnrv0lM4I9RbcEtVVOI8y0hPZSTbvr+uVSqU9ga4O5oELhkjxnu8DpQbqkzkVdjLWK0sABu8dRO2HC6wFYDjWXLBQMP/sz9X2YcyXkm4w1Ai1r8NGgE1kEbjUnYgsYr1B1E1Yq6ibgHUFkeH0PrgVa7l5iIKIvgKHYn0LmuhdXkUuB24m9bNid7fb6R3PNpswKDI3wK0ysNJAE6wi0pb9G3pw5Yxq6M9qWPnLkkDpgXo0hGobXc0wr+9SuJB6q1hbJuNcS/JlEBGbHEOijR3zpaQbDDVC7Q/Yu7AXw8kwAzqoh/QiANrgKuK7wJUgrMuJjqvaTGNz42mPwjudF24XhIdvi88gcEcAsIj0FJzD4BYQUbAmViF9KYBOLAhPwHyc74deboD9ASKvB4ftcCGxXr+qdQtC1gS345xNE3A4EUhkniTCpjR9o9AOtYx0YATsmf2zKtogjqbuj0XOhkfxni/FpwDoCA47Q1GlBmpTTm3ZLej/g4iAuyYUtXPQlonYp9JwOBa5o6j8mC866kpJNxhqhNrRYauhFf6BBQ0roBV5V+dyrK/gPA3t8AiA9gRgCEwicgnp96AVJqM9qepp2wGLlEXc3UwtgU8DNF5L+m14DjusWveh/hrcFlhC+r1scNMR2G/Dc3A+yVMY2uyH130PZwb6AJ4D0OdyBZ2EY9Hz99zAycTHsk1hXyzAgcjI3MDhcBhNR+H8DVphR+wHqPPmCR+n+Q8kZ8D7cBtA+qdYwNlEoeE00m/BAzAfVfzkIAat0AoQ+Qe0wnsh/TSSCDTdCa3wXKDiS0kvQzu0wkqAhnegFX0AwI00LSU1DyWh4AvrUj0Pvvll7LZQyH4AzTdCK0yFJ0KtKDVQS7Ev7EDTSaQeh/fgZtRETwqAMUQX4CyEp6AZF+riQKUxX2bUGQy1S6mFsoGFLSEn969rbhD1g2xscmZoYf8FCd8WzjlSves3QlYK9WxKhR/ONUO4TkmUYw2w0K9zCvW8HQpfJSEXOajXW6j/UELuOUFDDlJvZyj9dD+9jezLlcqzpTxPNuoK27/Fc+0Uwuyg2MRi4XHpjKCHj1Q83I2zstLjYUuQV7LhIsemo+fWIE3YfmRa/slN5PX/9X4FbNSV6dVS0kvxhXwpvWODqCl+93oVDtt0lOz5oJn5RiiPZUejzsq1Fik1UEsRl76RbXg8Y47RIx0QVPgnEkrcEkSVH/OlRp3BUGtkVJUl5ewt0dLSMmrUqK2lUA1FWA+fprOFYSMrp61MO0wj/hOaC6NuJjG+nzawcELGEcOJH07TH2twkqp/e95gMPQfGVVVO3OJhn5hOBRVYMB1/aTAYlBPag6shV/BB9hX1KACMxgMtcCA3GvKUNMMhnk0fN23UUxNZ+jxFXIYDAZD3zA6bMCzPYhhW7sWG8fZIP8df7Pvf7j5qMWeNxg+YZi5RIPBYDDUKkaHGQwGg6FWMTrMYDAYDLWK0WEGg8FgqFWMDjMYDAZDrWJ0mMFgMBhqlS2iw96H2UV3sjVsESxi8yqnqlWWkq7GJzL5Pllci65F0AYWXS+Gkk3BtejsLVkMwOlZZyXpPE/KS7OCEk8UyzsLLHoeq1TbTijlOCbkKiV9Psmwd+l28PynHEbv1EoiDIbaZzPrsD/DUNiF5LdK7gtu2LwsA0h/dWtXoyIOWMR+XnX6BEwFi/RIEr+rNpN9FpEV2b/BJ8AIgPpHQ4l+TqqewYOKlxCub10b0RXU3UDjGLo9LdgJI7HPpO5NIj+g8SQ6V+Vm64Tz2fTdpFMnEllH9FnqZmENC/kbAvB3RUkP3WQxBsOAZ3PqsHYYjfsN+KrZamjrcQ/xsxhS6Y5cezxC+rs4/71xI9jdDfbJ/kUaIQrnYd2Gt/M7DrTiTq788X+6HndP2AduBIjeB8B8HOh9CGt/uAcLGu7LzXYlqT2ouI9/RTQMDYdjoIcGsG7NiY0KIL3NJosxGAY8m1OHDQebyP2wUXsI35qdKslO0XwR2wILx4KrwMK2iHkuRWJwph/lWsTfCsqZmT9xFPtcUJoDV/pZHIvku0GWc4h/LRQ1ITT/2QZBBdzjiXf56XsvA+AxHIsksB4sOjYAsCKbxfkmiWrcaD0FFmmLtEVqVmh6aj0c7HeL802S3kP3dL9PXAt3gv8jljd55cCvcS4PPUNYxK8JFRuerZrvS3csUpOre29+MVvh5JxQhRdli3Kuy51GvtmvatoimZkDDPwRN/3IP1ndf60k+kwsEb22mlpWYhxNYP8TgFcB3K8A/knPzshNQRbdK4uXYSURsIo0NGT8nVwIPw/15FKYTurPBZmLjnkAhszwh5C9B/GPigkeDNcRnRj4CRsK99MQgRtoPLCaxhsMNU6pDe37k0LPI6WYqTSKL5DWSBMl1PGuJOkLSiItkcj+8L14nKYksl+X2qQjlEI9nv+RuLQm+Lsn5OZD0gTZKPEXaYW0k1KoJyZJGuN7MEm/Kd0roc7FknwvIYkT5LRJSyUUP0VpSfcFXkUukY02JKW/Ku1VIMjitkpPSih2QSVfG29IKHmTtNqX3vV0EIVSKPWm9KKE4icoJd9fSfx56XDZ3o/9Q54+PBbLDTsrkYR6rw5+fxjyw7JSQolJUps0Q0Ldj1Y6WcsDrx9tvu+Srucl+e5j4pOk96X5EuqZHmSZFpzfNulipVHn2uBkdQTntEdKVOGXJNSi2PhqU/ZcUSy8R0Ldnqebq5RCvRkXNvcpjbrfk9ZIqPveIPy0kEOZOaG2353rHeZCJVAiXIFb/bGR7d5SY77DH+32c/4Qih8anFwUOzvURY8qjT4Kn2WD4eNORlUNMB22Tum24LcdurN8Ibho91HsAknSDopdKklaLqc9yPKalLktZljj37j9az4uoe5ZQWxHSMqY/DtO7Prg91I5GX9Wtwea8jXJu2ERKIP7FD9G6YyUzH3qFel3wS2vFGMUD0u/WIlJQd7MfU3SM0EbpwXVuFtJz9vW7QX9/AX1TsiVUkqHLZbQhg+CqHmyXypfXek0xY8JNeow9Y5VWlKPtDQUvkPohnu5khkNYUt3KfF+kMwOOe7aKDZGh4Wdh8WODakB1Huq0pJQz3fzcyWRyB0bp+UUFb80aO8qCcVulS3fWVdvJtd9slFvskCHlRrzHbnPMZ6i6gqaHNZhiyX0YbK6TjAYPhZkVNUAs60fjjUXLBRMLlWe0tqRSDCT5o7EhXR4xdyBXbDB+lkwn7YawDkmSDAMoO5Z/yhdn7tWkZm9aSQyPJByVTDbsy8A7QBcRvSv8BLuWVhAE1zP4DNI74p+gbMLnFNpiWUu7hU0Zg7vp/FHALyEDXW7BeGHAVjLypcFQAyewf5uFSmBLwIM2QFORrNxTiV6RBCVOyXbe0cQPp/657CC8PSr6BFcYDCsJeqdRIv0B1iZedQJNEBDFL5D+mmcH9K4U6WKlZLeJ8I2Hc3zQlOsv6B+AakPANJn5+ZZRwPYYK8NnR1wCIqaQdM9JH4FwAiYzqBrsCzsUwDYiwiwHr5HYjHNhe6zy455ZdzkfA4L6lYXa1U3gjqzfbfhE8kA02GTca4l+TKIiF3d0veRpB4i9R4REXmjIMsPcSC5lqZNWUZPwH6kvonTSURE7gzufU0Ag2fjAGcRnQXTSR8W5LoJaxV1E7CuIDKc3gc3oQJ94w84UL9fdYmjIKKvwKFY34ImepcHUWuItGX/mr6TzZQcnw2va6N5NVFgGZxCYiauQ0TUbR+SMgJsIovApe5EZOUb1BWhtPQ+ELbpsMLO0k4hCo2TEKSPzc2TAM/SL5ETnK7H8Yq6AK6j8QfEvYenC8EmsiYwrDiVKDAFF5pOwM2s/J1BYiQOfRrzebyODQ0D7FI2GLYMA2zgT8Q+lYbDsajiDQzfiiw1i4ZdAejJjV0Evyb+OEP+NRQ4AqD+ueAwBoW3rTzaAHpvIOoZeoU/xzmNuquwr4NRNLwO4B4UZLmK+C5wJQjrcqLjglX3UowhcmfI/GEq9lwAPkc9uGuD8KUAbjWa6XySdxRxd6kPgl/xUOgi0lNwDoNbQETBmhhE7Qx7Zv/qMs5IDiMylXgmaifwtMJfsME9l6h3P14fknIX9mI4GWZAB/WQXhREea8RhV8RlpLev4wAcCeRyLOqd2B3kkcT/TL1ewZaqgTpzK8o7Oy/K7vjAPgBkTainiZeQQRS99D4J6JUGPNW5hwtQaARBVIT8FOc6xlcfWMNho8RW1WH3YJr0f1CKGQM0QU4C+EpaMaFunjJ3ODf+BrHoefh93AULlje8/L7cAqJsQw5BNqhHdYjoAkm0DiOxAvwHhyPDZxWVsqOAIN+DC3wS/gpQNp7FxtNGpx/8+ckbaj39NwQmETkEtLvQStMRnuSM41U2PYbaIL0HbAWHoTvkvTeYD4PMGhX7LfhdTiK5NEM3qVshfFnON1vFoTfSMMDJF+BJbBLzodKdd/DmYE+gOcA9LlKIn5FI0TG4r4DL0Ezcc+Eb3/qPVvzl+C7AOnMXOJyrK/gPA3t8AiA9gwVuA/11+C2wBLS71WS3ici7fBO9k+Zx4oonAcUWNX/Nw64j8CjNIJuyRoN1tlE3oFWuB9uxp7IYE9nO7AEfg4HkTiL5pEADMvRxEB6p+BFsOyYb/wS7vPwFJxB8hgGB598WZ1Y7fAcNJMCXUNlnFwzS4Ph40GphbL+pJRNxy+URl0vh0J6pAMkZCP7J4HZmyrYdAi53ur6fRLq9pbB78xZdXdQCnV4tlu2dEUgBSXeCaSPCRmbSSIQIekx3yLARrpNQl3e6vorEtrg/b5IsVGhlfYXfFsPGzlHqnd9pbZLejxrd5CcHSrqQ+mgoKgzlPCsKMvbdNyuZJ6Nokc828OpW0I2HZKm+z3pGWemnMLMBTyZzeKEs1wf1PY46dtyDgrsGmzpB6E2zsy1P1yVPZW9c6qQ7tFXmw4nbNojv/M3vBsKeU1CPXODw4US6myRlGPT4aLULaGuXue3IvUL2UX7MM+mo9SY75CQc2NwsnZXPDOEAtE2cscp0Vld8/OsmQyGWiajqiwp/DkKLS0to0Zt1PdchgHJg9h7U39E5YQfNybjTsgJcMGWmWqDFbAfXW+xTZVLpAbDACajqowx08eU86jf2lXYOlxA5NScgEjTJ7Ur8ngF52SajQIzfLwwOszw8WKYvzYZxmx1BjCO6LitXQeDob8ZYHaJBoPBYDBUjdFhBoPBYKhVjA4zGAwGQ61idJjBYDAYahWjwwwGg8FQqxgdZjAYDIZaxegwg8FgMNQqA0+HzSHegOuCRWcJn7k5fDHrmKPzjWIJDidxanVeiTcH5aW3g0XXa8Hhxra9DO1g0ZGGwwq2yEv4vqpti1jZTWxziMH9xFPBoZPvFcW1iFvBnr0hx8Txoidl0zmHeEOJjg2kOxaJ14qm6BNzcL0urQYHLJJWpY2ePeZl3V4nni6IfTHrELx3XhWlBelj1bhKCLtBP7iEq+h+odSo68cxb/hEMhC/cbYOICIANVWR+mEi6+EfMLpEguuJRvqjnTNxv023y7Ybpfc3UvrGtb1iaQCkh4aCHGjGhrpfED0u2Fq+PCvgJ/AHXEh8I/CAFYVlRMI65FDSt1IPTEfXkppN4xHwH9QfTHeSoYV+szYTk0lfi7uA+hFwEYyip5Mh22wp6Rlup0plxzIYQ2IKTaOpe4jol+l+j6G7BrExOIrkCTT8D1Eba+dKpT0BJ+EeRN3/0FTNTmO74azHWkLUhs9Ttz1J5bhJ6x/Kjrr+HfOGTxoDUYeR8Ys4pIrEw2F4ka0Zspy2VRu5sdI3qu2V8F1Yhe/gMxEkwnfJiuxH+kDqbiZyXW74AaHfKwDcCwG4mMRYmsYC8ADRbVGLv/v+lmAC8YkM9vxPPkF0W/Ri6eebzcT78J/UHYb1ahWJ7yQBkfEAXA3XUDcHrg5iVwHEZ9C4C1DJu5gDJ9E7noYpWBUT4ztz6H2BbbwdUhfSeAobumkcWiHfRlN+1PXrmDd80hh4c4kjafghROFeGsM338RGTnqszk5nxT6H8mKn+kXlTDedQ/xr/oyHY+FMCGbGFoGF+22AoRF/0ixJWcpId+B8PzadpxVKtd3jIbDoWVQQXpShcD8NEbiBxgND4RcTv4AhhbeSUm0HEtS9ASeUFXcDiWMY9BkA4jTPDLZ3igJY4RnIK7M9n3w3VMKD2fm01OOh8E74avEslk30moIKz6cxs6NS3gtFqOedCcEs7mqw4HCwSJ7oxyauD05Zuz8vl7ZgdlBO+SzAifSOh69VIR2YTvrSYEfHdgBrAQJeBQv3IFwYuqs/NZqdySzaXa8CpG4u8dhk0XsDXOrXofuv0AwP0XxQkCDvNcgBi8Q8GOF3cmfGYWlorjg5L2j4XGyvlywcC3sP4hlPe6VGHZXGvMFQkVIb2g84DlMK2S9JSyUUJ3Dn4bFGQh1/C4XY0jJpmbRjrksUSTPlotTDUps0Tm7GkcoY3+1I+k3pXgl1Lg6yJKT75Hgpe5QruxhlpN8oByXm+g1xMu48KjIt12dHH7AlZF8uoTSyUfy9IKpM2z1ekNBHXcWK7ZBQ19PFxH1fDupKBiETZKPEX6QV0k5KoR7Pj8zjEkrcI62WblAadb4VZBmtJHKWSMskAi8zQYVTP1b6TWmyhLoeL6jAtNDJlXSdHBRfILVJR8j1en6VhHqnS5OCHzcpjTZ4bnpQEtnP+V5mbC+8fJbHJdTdKd0Yqm0p6ZJQzxWSfFcvLurdKxgwCb/bu97OHXWluutOpZAu88tJ/iLkSEiBx5aDpN9K9yvRXtBdo3MvKzvI8n3pd9L9QdRMpb2GrJEmSqjDc1jzsByUPETpJdKiULvKjDqDoa9kVFWN6LB1uXfJ5cFtItnjdUUAACAASURBVEOhDsswOleL2BKKTck57Pa8VY1RInwNo9j1oXJ+Iydzn6qeYtJ7JuZUu1odtunEJZRCqdnSi/4N2vc3Vr7tKqvD7g48mYUJHFx1PZ8jPeu/qiPU8yh+SqiXUO/Y4BDFLgh+r5F+qbjjVzgedpCGeq/OrcCqIic62/Prgp5fJaHOtf6g2vCRr0s+6g2iXgiyZAZAmSxxCfV4bQzrsFLSFdzr50goNks6LaTD5JfcuTa/b4t311VykH2c0kt8vd69MDcXpZ++HpNQd95TIIpdn/sEJmmd0m05afyT+LAc1BELoi4KTlCZUWcw9JWMqhp4c4lFeQvAOTw43BfU14X6GEDDdwNrunpcsAKvwen63FWEfjfTSgI4XwwOt/BKnQuQnEP9WDgS3qABkqv8yL63/TJSdwRejDOsIbKU6Bk0H03PPwBYDeAcEyQYBlD3LJ5xoXt2aHf5q4jMwZ+AXMigB3At+AluF1xGUyBI9Tkb0itc4QTsTvLoYJ0Jv+fTX6RKLAfeRmBnvOlV8uBiOfAzbKg7ryCurPTGO0mPJf4ygwozFlKmuz7EheSfsUbBv8M+RO7Mmcd2ryhhr7ECTqf3HoYclB/jfLlg1//hWHPBQsHlEzYPzdplbE+dF1N21BkMm0iN6LB+xAFIzSLSlv1rvmSLVmGrdXojgD4VHH4WoO6DTSvzWQC38Oa7MxwCc4lC3cK+FOwv/XwVOojOgKeJHEDygtBCXRkOxQH9uR9M7Kqx3PSwHLiZOmjwFjt/SgSawt9OlCANqbU0e49oCbRDX+qZxjeOqMvU+CtYf6niq5JO2I/4t2n4QXWSJuNcS/JlEBG7iv7ZHKPOYAioER22P0Dk9eCwHS4k1ls6fRmGAagF7Qne387UlTFrzNAvjhQbAeqW9kdRfSAKEH0yOFwN9PGOmeU7xE8MrDk8LBL3Fks5AqD+ueAwBpA+1q9V3YLQG8PtOGfTBDjwI5Lr4QJ4FhbT+Bti/6xUpetJt2KvpWlQKNDr+ReqbRbA3lhgtVabXFFYlX0wqruYNLjvMPjgstIvwq0n8q/B4RNwUlmHZ2W66wvUQ7I7CH8OnVjpVd+BbUmBNa3qSYGJ2KfScDgWVPXd5eYYdQZDQI3osOFwGE1H4fwNWmFH7Aeo8+5Q7dAKKwEa3oFW5D3iOdAKrfAGdS1YrdCKA0ThdpruJHUvvAe/gya6lldRh5FEoOlOaIXnKr0NlJF+I42XE38LYnB51V8RAbPAouex6jMUYw7Nt5GcB2/CfiShYfdNKO19aMWemHv7m0D0UlKL4T24DoF7EgBNMIHGcSRegPfgeGzgNAAep/kPJGfA+3AbQPqnWEAUfo61J+5b8D48gAORbctWaR7cTGIhzXXQDu3QCV5R19F0DYkn4B0YW0XPjwBoPpjER/A+nFtg3Vo0S+bZaFcE9h5EImWlX0GzjTsV2uEuAPf8SlJKddfxWND8BdJvwQPwKs71lfx/XoID6Vaa/p/fXar4VfYYogtwFsJT0IwLdfFKWfo26p4xHz4bKjMgvw8ryjM0jIVDcIEjcRfR7IWfg/uMn6ThTFxIjaV5NrwP+3pT8dSDuy9Azwds+xn4DyINRC7FvRTAncnQahy07wvX0/QfuP+BIOFSX+YBoIz0/yTaRvQAHKgbtzEPEfWh/33mm/BPGsf4D9Dp9qAb+8ZdpCCS9+3X7US74UTSILD/L/RV0O1ELaJHB9LfYYj3IDIaZtE0jjSkwXk8tDCzjobPwwF+Fqel0ufSY3Ch8RQye0E4kBbNwE+JvEfkJByoO6e6nv+Qhk/D9jgQHU3dE9XkKUEp6QfCXJrGBN31eBWf7pXqriisoXEX0gfggHsfQ8qv/zkwDQvq98l2V3I8g6aUzTWJ+mfA233mJ0R/RmR9pQr3bdTZYD58NlTCknIeLltaWkaNGlUqtSEHB+rJ260p/ihDTt861TFsBO2wI10tbDPykye9VrgH5zLiLkNrZLbIsCXJqKraeQ8bgHjrH7lKrLnibkAGg6EansCeYhSYoQJGh20aI/IDqjdjMxgM5Xhs0ya6DZ8MjA4zfCIZDmKr7W20daUbDB8jzIu6wWAwGGoVo8MMBoPBUKsYHWYwGAyGWsXoMIPBYDDUKkaHGQwGg6FWMTrMYDAYDLXKwNNhc4g34Lr9t1Xa4SROrWpvUh8HLGIz+kM08D54PnM3UbpF52swhcSxVezaV57Tid0GbWDRXXHTwE6w6HqldIKwe2KLmPfF963ZkESlXdt9loZcA8+pro3zsr6ME09Xkb7Nd8rs+30Of5z+6cAXj4VrEb+mujrP8F2QdKypLr1H4b6XD2bbnvh7FSWMI2FVt39/9bwPs3PLXOR3b7rwjPThZN0Q8pwebuMvcnu+oof0MoRqlSjcFawdmgOn25cVq/PpxPcOwpdli/KG8YbMlVJN28NF9Y1+vN4/7gzE78OsA4gI+murtOuJRjamnVGYROSYygmr4tNwA/X75Aa+D7uU2GqotHSvN/plw28FnybVbfr1cTvuLNIPU783JCACk0lfi7uA+hFwEYyip7OSs7cYjCR5Ag13Yf2ByLl07VtpH6ZlMIbEFJpGU/cQ0S/T/V7ZnQZjsBf2mURuJfoGfJ3YjtRfHcSuJ30m9YEHmYYDq2j4j3FvR5cTPYch/1o5uU8nnJ+7P9mLMI7EZJq+BIeS3o2YU+CMbbPyZzgLekhC+txgP86lcAqJyTSdAvNoPJeuz7KN5x2mDyfrHtITcf5Cwwg4l/RuxB2avTb+Axcafu8nbBre11Z0wkjsM4nejHUPdSfR+S7DwjsL70gKIv9HZAhWc6WtkD3fCA8T8SrZwBDvab8Pbe8r/Xi9f8wp5RxzqzFb8VN8/7AbPtrKddlc9MF9M9rwd+k+xcZvsvTT1DNLWilV4063Q0KdL5dOsL16T8119Rt2WNwhoa7HK0lZnHu6C50yF3JRvh/nnlvLpn9Y6bCX4UtC3oTDzoirZKWEuh/dmCweFym5R27e0eqtl+39/lBCHU+XyhxwXm7bN4V1EnIulr6a6165wE127NLgdx9OVvjsfJg7ok5T71kFrqL7wEzZqCNZolZ2rg/xooQ9aM8u5ppcVbc9zxl3H+jH6/1jygD24zyShh9CFO6lMfzwvh4ODmaovkky7DzMovcGuNSP9SfuVmdf+WOfy30fD6a/HAt7YvDaDkzPzh7E7soVbeE8kp0fi79VRUNuypbWnZnZ6AQLdxdcGDwqd5qilHSPKTTuAEfT+K2CKAcsbIuKTjN8vkf9EfAv8EDuJvhPZeeOUrNyemzIjKC79iCecZfs1XY9DQtIe9W+DYD5NI4L0uT5oIzBmX5RbrgbHch97U6ngl+hCUD3eOJdQfh00pcG9W8HsBaUnXUZifVHBmc8ig3Nj09/Jj8EIBGq8MGhts8mBdbGbu68FKaT+nNu4BPou8E8wfYA0YybMQe+k5WeCDmqroP6Pf2oxKwqpptK9fxwsIncD3kbfV9J/ZISPhLKnKzS6d2MI4KVANGMC72XYK9ib0WlzjvZmWrXIjkvaPsq0tCQ8WlwIfwcB//q8PxNN4/zc3Vm5rdfzV7UzA+JWEsaooVvw2XaXqoo4I4SU+ur/Ta6hZPbZa53Qx6llNuAA6VQ6k3pRQnFT8h5SHSQc5D0W+l+JdolSba0TFom7ajYqNxnouvkoMRc6VWpTg7q8F6JOqRl0lIJ9UwOpf9QQjZy/yS9KqEESlSs8IfZ0nJeRBLScgl1PS/1KFtQKekVsSWURL2Fj43V84aEkjdJq6V7JdT1dFArlET2c9KTEoofGvR8XOqRUO+pUo/Uo+BtIsQ0uairKzg8TUlkvy61SUeEHnW9cq6T7UgLQy+ptoQSJ8hp83smfkpwKlHPFZKk1yTksjFPvnEJxTIviz1+Cd5ZTk4KteMwpZD9UiA9c963V+IQ6WA/Y/z/qpPrvY7Yue9h+yh+TKjmmXZJOk22J32ZfxZ86efJQYlbpGXSFRLq+Fsl0aV6PsN1ue9hYVbmvjmVOlmliEuoc7EkabqE0qg7M8KRE/S8fabiXgvLnPeZSqP4AmmNNFFCHe9Kku6WjbrcoNgLQxdpwh/GPdP9K84vyhvbhyj9ujRDQj17B1GXKBXUykHx9yq1vUxRdyuN4o9IbdL5slH3R9luSR4lt1V6QkKx68t2oyGXjKqqER32SmiwSnpGQp1rg8PwzaWQ0bk6zM6d2VgnZXRYOEGBDuvKzPA8qjTakFRV2MUm08rMJRZK3zKMye3Di5WYJCmYDMxt+0ddoYw7KHZ2CeWxSkKxKaGQ5XLag9+v5Z7ExcGzCIpNDBW4VE5P8Pv20M3Xu9fPkVBs1kbO3lyiFOrOzCt2SCh1i/SidHVIwazLbftyCXV3+tJtlLpJelU6Qw7q/KCS0Ptko95kgQ6bqTSKPS3Z0k2h6ak1Eup4O0e6313nKVFqoq8UZXreo5QO89TJ0blTl6VOVlHiwSXwfbko3iKhnjuC2NPlniO95N/6e78dlFbqvK9Tui2nbv4k8CoJxW6VLV+79IbHc9Hp4mlywtPLo0ND6B6ld5L7F2lRwQNi0baXKSqsnLxqPC/Jn9zOPt7NlHNcFU/GhoBa02F3KxV+yMpcFR7hR9dC8nRYT+6N6cNqdVg2zV8l9FHlpaRsaTWgw0r1Yd562JqCp/5SOizu3/tyLssO6ZvZW4DjTfrL1xbJCdLruW+BkpZLQ7JZkiEdZnuvX17dMjosnlO+U7iYN1NCPWVeHXZQ716y5d+tip9oQqs4dkhVl5L+oYS6F2fT56yljfNz2YTu749m3wPyS8tbDxtdRdtL9XyGUjpsjFKopzMUUupklZIe99+9bBRv93uvu+gIv1026vAu81LnXdItfoFeVHaVa7qf3nuF8k9i6Bzl67BLcidUSj0GvREa86XaXqqovDtVmKuqm84xlCCjqgaiXWJNYG2Etf4nkkNxQH8mx7b0SFKt8B4Nu8IyyKyRTCEF9p00AAfDU0RPxE5Rn4D9SH2HujuIbgO/IH1FtrA0OGtp9mwCE4EFV1O+U7ehYY9ur8L5xOYwuIwt2flEbsetZLOrHYNVnCiAPigrfQouNJ2QtUhsOoPEoURfIwrMhF8ScWEQNOMeCkAKF1JvMaihoLQ8mkI/SrW9VM+XZzKaS+ptBodXpkudrFLSowD2Uegpmhr9JaW6ol5VjiQK6SRYpc/7ZJxrcV+m4XAiTq5b8wthHJF26nYGi/Spla2RVY2zpH0B6tbBQaXbXmVRhs3AwLPpKMrnqAd3bXC4FMDdr09FNQLUZZbN45tYsz7hXVsDSguOIXJn6POgqdhzs5FWppeWINCISqVdT7oVey1Ng0KBDrSSmkWDZwHfE4r6CMJjcQh1NmmgDaD3BqLePTS8sH8Rbj2RjFH7E3BSoFRGwJ7ZPytjV9IOhxO/jkHfzK3tLJywRcyLuHsRAfYHiLweyn4hMc+Y6BIi9wRfMnnncacgWVHpPyDSRrSNSBuRFUQgdQ+NfwrdZIfBp2AaadCxABxEBNw1odJ2zrYlxwhiPulTy7a9TM+X4UmYQGwxg/fKDS91skpJ93TY6TR6hzEAx9PTbWDR9c+gqJU4UNdY9rxPxD6VhsOxKHYFRWFnrGUA7riC2DwOJwqJQoMU7xvNR4PD9wHSO5Zte6mimgDqXg6FXBkY1IykARIZ27Rn4Zb+/ubvE0KpF7QBB0qiVKu/xpszQV90HsyWVkgrpB0Vx//tzy3cKAclH/GLytp09Egr/PXz+NXSCmm10io+l7ihq0BiUYrOJQZL1m6r9KxSPWWlVyeiX2w6EpOk96VZoYmvwKbDydh0HJO7NFI4lzhXQrGF0rrgryOIQimUfk6aF/S8t97zSiB9tR/lz6Z+KKHkN6Ul0l1+dn9K+Q0JxadI66TJEup6T+Xw5jaR3Z6tmOP12BoJJa6Wu9pve8/cINdhgSnECl+6P9u2UkLx66QV0sVyUUf134EUziV2SM9Kl0qoJ2z/vYNSKPknabU0UWnU7a3CnicHJUM2HZ1vVRJaqucz5M0lrvSNF7IncV1wlkudrDLcLRfFn5dWSV/KnRhEyT3kBrZasQuyV1zx836JUii1wB+NTnjB1ZZele6QUPys3FFadC6xQ0KJCbITfqOyhhgXKeXZMa3wx79f4VJtL1PU3YERymrpCrmoy1s6jfs3AXu19Ky/DlrV9Y5ix/bH1wg1Tq2th0n6UDooWCE4Q4lYKKqoDluVPzvvoA3e6LGzKxDu90P6aVp++gTq0WbQYfKXnb25+563y0qvTkSqysRleDy0/DA7x3bLudHv+dTuiq/PzVWowwq6PZG5OS6XkOuF3yeh7sy61zwJPzZ1U+gG9Fhoreg2KbwMPjdbWrziJ2h/LVKxzoVB7DO+9Hy7xLh0RpDxyNy2P5OtWG+Z7+cKKdRhs4Nu/1NuT8alb2SlxDMj8Dz11ku7BRWeWcUdrUzPe+TpsKvy+8oJ2/KUOlll+HF2eS/xTih8jdRU7Loudd57pAP89PZPJM8+02NdUKVfyM57niv1CeArfhY7WELLrnGOC6TkVbhU20sVJWlStu294bXkVdlRZ/9YqSqfQSn4IvMTSUZVWVLOtyUtLS2jRo0q9dL2sUGZ2ZilMJKOv7PtLhtfigP1uXsuQPxRhoQ/G1oPn6brBbb5fJ8razAYDIB/z+mewtDxW7smW5uMqvpE2nTcRHoe1kPUCUaShMY+KDAgmr+IDTRnVtHfgQRchgPWwZtWYYPBYABWA9SZD59DfCJ12KVEXoQDcMDaFb1MUSOpqhiRH+DbJsXgs7ggcJ5n6KD8ZAaDwbDRfBbE4K1diwHFJ1KHbQ+LIGj8ZrGIHQzyS/5EdrHBYDBsCWrEtt5gMBgMhgKMDjMYDAZDrWJ0mMFgMBhqFaPDDAaDwVCrGB1mMBgMhlrF6DCDwWAw1CoDT4fNId6A64JF58qtXZkqWVaptqcT3zvkbPd0Yrf5G552pzdNdNHusrIuoV0r11t0eWaAhSw61gQhP84vKuspu1SWvvFgttqJv29aUethBLJwCt3jeswCi57HNk2KRxtY9F5YSfozRU5K7w2ViirFOBJWif1hQz6O42/kRiXgysDld2GfbCyBM3RvdFUu8ErfKbNzFolkEPgYrkVH4cgsM+piJTxrlyqKwJVzYVFVXiZzckue57s7dywST1chnX693g0FDMSPl6wDiAhyfX5vIRyoJ3YHg6/cmFy7wE9p2mEjcihwZlFX2Y18BYp01yoinaEU1xBfzJCKjys/xr0dXU70HIZk9oO/mkh4U4CnSV8Oh5XN0gdehHEkJtP0JTiU9G7EHAb3+cO9T5MCawn1q+DrxPag/t9DsZ1wfv4OYX1nr4Kiiko/HJaGvkT8CI7HPrNSURvLdHQtqdk0HgH/Qf3BdCcZ6rlucaAZG+p+QfQ4opv+UeTtuLNIP0z93pCo9JXlTTh3kv4TDQ1wPPaFOLPL3nrKjLrdcNZjLSFqw+ep256kaCxeSoAD4EyicXc/oPlAoE+XyTIYQ2IKTaOpe4jol+l+j6G7lhcP/Xq9G/IYiDos68ZiyNasxUYwDP6r0oWUizXU/1G36XeTwu4aEYp14E+4j1bai6QNbs9u9pgdFtvD9qFk3yAxniGDymbpAz8lXh9omg+p/zS9z8EX+1RUAiCxkG1GwSg4j+jlJP89dHauJLUHDe9uSnUD5hd4jSolvQkOCSW7BwcaRpYtqg9cTGIsTWMBeIDotqgFvI06ZyJIVHfDrYo7SJ1K0xj/qNzZd+CnJO9g8EkAPE7zSXTcx7ZDS2cpNeraYT29L7CNt6XrQhpPYUM3jWWKAj4E6B1LY/CY5dd2RG4lq7lM7iQBEW+vwqvhGurmwNXl80D/Xu+GXAbeXOJIGn4IUbiXxrDnPQe+k51DSHhzCCsKJvEs4tcEv9thRDCDEZ5TsojfBbv5UYl52XC3HheaflRs0qwoX8xORHTmTd28mp1pYX5u1PeoPwL+BR7I8eHnN9Ob7akk2adUd2V4lDToa8FheCrGClwZAbNJgXV6sRIyvA+t2FcF2yWXyVKq50tJfwJ9N7izbA8QfYHKPOXP6qQtUrOCqVpPVuaVdPvcLEthOqk/V1dUeWJwOr1zcwPLS89wGakpodtl0aLKUgf1ewYDOFPhOM0zczxzWhmPVhcTv4AhRRVYqZNVCm/Ar6dhAWkL1yJ2WxC1Gqxg2OcWlT4w+HUMQN2KbNS2E/wsqUtJUkB41DXDQzRnHHgWzNMUL+pDgPSnyzYq7zJp9xuStmB2KNl00pcG12w7gLUgO1pKNqTM9W7YdEptaD/gOE02sl/yPWwlM268Uez6IM0qCXW8Kynrnsdp9V0NxSYGyTw3ItOkZdIZcjLOn+K+q5GeW6UeKVGFg4N10jLpiZC3cg/P7dYhSr8uzcj1J1SefnEGFibcP5JOCxxitUlHKJVxjLS9EodIB/v+I+L/V6yo6xQPe08vlaVMz5eSvo/ix4T6p6gznTzekFDyJml1rld4STsogRIxfzzkeLfyTm6e95MyRZVhQuBLHsUuCIWXke7xTK4HmTJFleI8OZ7PkcB/WM7Yk2RL35eDupLBIbIvl1Dac+OS8bVW5mSVIi71+B5A1CP1yPdVE5dQ8ii5rf4V4Q88z/1QxstXR8gb0aNyUeKE0GVS2F15oy7M6FBUmaIez3pLcVDv4mJF5V0mKOn5D3vSv11scP1wf2S+5hfo+1ippiGGfqXW/IetkcJe+5ZLqHOtJOm+0K3wxtCYni034zNQ0t1KZRQD6r06CO/IvWfZEuq5o0/VC99HpslBHRlnSKNz/QltMd6Q8pxDLpfTHvx+LdSNnl6/SXrV1+udH+QWFS/wwFQqS5meLyV9ptIo9rRkSzflnqBSjMm9tV2sxKTg97qQI7SwT6z7ZKPeZIEOK1NUKZaHnpbyFE8p6Rn2Ue/Y0GAoU1QpzlOCHB+wsUtDsYHbra7ng5C472EuNdt3NZmtWJmTVZ5Cv3EPKx3WzTPlHBf06mlKot61Uoe0vxzU4V1xj+ZeJhcV9FjhqMvwmIS6MxddmaJekby2PyvtKqfQXWreZbJKQp0vBIe/kZOnw+ZIKDZLOi2rwyo0xNDfZFTVwJtLLMoSgMF7BxN3++ECawH4BvXg/A2An+JOD1Y+/oKguTHIchkWJAMX7untgpK9LaAT/V3hV3CgKbNd/ZY3TvG4ieSeNIVnkHYkEsx4uCNxIR1M+NhnEb0ePgdziUA0z2zvEdLgnpUTVjxLmZ4vJX0c1jgGfQm3HucGgPRnAhl5tnx3BOFzca8IrXLdT+OPAHBgR2ywXiKyiAbQzQhYD98jsZjmhoJeKlVUGen7Eb+abXYnn1LSM+TNx5Ypqox0csscjfVEKGQNkaVEz6D5aHr+AfgznMk51I+FI+ENGiC5Cih7skpLL84rpKAhszQ1jsiTQa/OpAEadsLdFmc3IqH1IcK2SF+iDlJhy71iow5gBZxO7z0MOSgnuHhRh4GoHwvHQCsRqHs0t7S8y+RtBHbGi2Lu9F/jnaTHEn+ZQeflV6pcQwybjQFp01FIChdSbzEodAMa6nnqGgZfoP5XcCVA+uvZLDbUt4XWyaMM24Iqux+W6DeRTpiLvTDXMuZIUq3wHg27wjII3QK0Y85Sij7ILe1cEpcyLFcBFM9SpudLS2cm/JKIC4OgGffQIHwNkdDaQlP5VQ3gVYDYB2zracHZNJ9L148ZNgUXmk7I2v41nUHiUKKvlb0Gikp/FaD+NtLBOlDjAzgP0OOybSnpmX67ixTUZ6w5yhRVV3Xb856QdoadYS7ReuoWwng8TaJPBQk+C1D3Aexe9mRtbM+XYRiISDsairUc/pf0Z6vLWGzU0Qn7Ef82DT/Y+Jo0AVhv55ZWeJmUvnjT4Kyl2TMPSaCNsUY2bA5q5D3sICLgroE9g7+dsTJPzv/NoKlwD4lTGJJ5vvs89dA7NJRleOjhtxTe/az4pzcbw+FEIZGqnHAz8gA26CuhEAdaSc2iwXvk7AlFXULknmAh2gFC5o7AMgD78tzyS2Up1fNlpHsMg0/BNNKgY4PAnUPl7EndsCB8DJE7QydqKrZnE9ELhJ6dB4H31vIDIm1E24i0EVlBBFL30PgnomWKKiX9QMgU1UYE7BOIrmZYXWnpHgm4HSdszVGmqDJtJ3ckzyd9KhZgkbi3oFfxR3X0yeBwNRDcfMtcJqWlF2ckDZDoDQ6fhVtyr6ThWIPh+yT3ZHDoPczKzII8jQtNmXtS0VHnwLakwJpW5OGjeFGnk7gsOAsOQHrvUJ7Cy2RvLLBai7XxItx6IpnPSJ6Ak7LnomRDDJuVUpOMA44dlELJP0mrpYlKhyfxbX8NIDuFLX+hK+VZECyTjlP8BH/t2V/YD+X1V5g99lESOUukV+WurlSrddIKf+G39xFphdLtWemJCbIT/nT8lrbp8Bb2CtfnUQqln5Pm+Z3mrzKulFD8OmmFdLHcjJ2Lx5hi6+qlspTt+eLSvVzPSpdKqGdWFQ18Q0KJSdL70iwJdXtr9T0SSpwit9Vf+4kfGlo6CnVOnk1HkaKqJLyIVV767NwVo/JFleE8OSgZsunofEuSNEE2Sv5FWi1drXR4jWeOhBJzfZOoRGa1pszJKk/helhgHmKvlp71FzWzCdZIi6Td5KDut4LAsCnEgxLqvjdUYNFRd7FsFG+V1vl/6Z5KRT0mocRsabV0RW63lL5Mkii+3l/qztp0vCGh+BRpnTQ5tIpWviFluEop1OVWl9gQotZsOiTFpW9k16vjLbmx14UsOzKsyhpiOUcqnrEmKK/DVoVMmIouJof5gr96n/nrHRtEveKXYyNRtU2H7d9TeqpJXIbFIYuJMMuzrXPuk1B3xp7lmWz39r4cyuKZvcwtJqVUllUler6M9NmBHcSfqjZ+eTxkPTE7lOsN3w7NBDQGuQAAIABJREFURvbJ6u0syJinw8oUVQ15iqeMdBS7oGzhVeuw3nppN19KcmZQpi1dnO3hfOPSyUGtUG97KHxViZNVnkIdFhTlS/mxUuHrcYwc5B6oZGso8FG5SJf5WZzvhzRW0VFnZ09T5i82vlJRku7JZoyHL/ZSl8mH2YZotNyMDpM0N9TDmaLKSy/DVUoW3rgMVZBRVZaUszzc0tIyatSoUi9tn1CWwsj8PRRiH7DNZ4onNxgMhqo4nEQj0WdrxTBhAJFRVabrquBAaMtf4x1kFJjBYNgUHHgV529bzWz544HRYVUQhT2LhBkMBkPfiYJqZkO9AYsxnTEYDAZDrWJ0mMFgMBhqFaPDDAaDwVCrGB1mMBgMhlrF6DCDwWAw1CpGhxkMBoOhVjE6zGAwGAy1ysDTYXOIN+C6BQ6aN5bHcC06asv9QX+1Hd8RbUcaDqN3av/UbvPSj203GAyfGAaeDgPrACKCsD8ej5k1qJY2kpJt71tpAKSHVkg2QOjfthsMhk8CA1GHZb1+fAI/Ye/XtkcFkN6mH4raEnySz7vBYOgTA0+HjaThhxCFe2nM3HwXgYX7bYChEVyLuBXyXHUlWDgWjkXy3WJlPgEWsXmhkKnZLInXgsBziH8tVNqEKvyIWcSvCX6vB4uuV4LDFWAFRX2TRMidYHHppdqe4SGw6FlUsU4ADIX7aYjADTQeGAqPwZm+dNci/lYo6imwSFukLVKzcr1eZbIcTPyjUJYXs1mSc0JZyrT9Zt9BcNoiubjqthsMBkNRSm1oP+BISPfJ8dwv9Sjr22CCbJT4i7RC2kkp1BOTJD0qx/OY8IqEeieH/ETMlItSD0tt0ji5GZdOY2Qj+3Kl35TulVBnRT9SqPfq4PeHEur0XJDYvi8lt9X3LpZ1ulFKekWmFXgM6QOnKek5i2qTjgg5rHlDQsmbpNV+27syXlEOUwrZL0lLJUIunZZLKHGL1CZNkVDX85XaPk1pFF8gtUkXK13U7YXBYDBU4v+3d+5xUlRX4v9WV3VPDzOAG80Kq0YTwWjABwRfIZoorBh1QY0aNfEtRBMT0Y3BbNT8Iq6PqEFMcCNGJeKKCSZqIuyCMVkTH6iAKCiOjKsE1DEryjx6+lGP8/ujqrqrp7tnGmZgpuF8P/1H1a26955763aduueeqlOD8cNE5FehWsqTFkHa8yETN4sg7X7Qr8fE8W/WSHpGJKyfLYKk5hbtBllOl0w05h6SurYnkSrpsHSxvnlJ5Ndid1/79mGtOPkAUS9Hgid1iTd4kWRuExGR94v12VoRpN2PiTVZ0uMjHTtOOs8STyq3XUQuj4T3tEXulMzGPm+hoig7PnlVNfBsiVvEOwDO+HB3KEDsmcJx62AcsH8Y+cx8CiAxDdfANXDjuGCsDw568eIYK1G72RaRhGtpOBnvU8gdOHvBGVg91b49GI45PbDmuWNwwfMDoy3EvYK6/Gm/pO5fAXgdwDk0TN8fhEbf1vd74s9iGEFbvOXIo7hUbjswnQQkLLgY72mc71CXXwNTFEXZcmpch3WLATZYED8lsrLlAOTmYzYXfvWXbIPqr8d4m9h0jCswh9H54PatvRKHk3uY3HpMwVzdNSjalpKdWmhFrJn6d0JdVbbtwD5gYy4Gl9hExCDV2TsJFEXZuakpHRYvSdkHIP5suJsC8L4Y7AmksvBXkk+Ruz88ZyiArET2Bf+3J7GhWy+UfBBupSOpzXAV6b3gShCMy7HOIbUNat8yHGgiN5/EpwDoiBw6HXNWRNPfg70QgM8BmK+E6S1wQah4xmHeQzrfkD1gd6By24E7sZ+Cr8D9sJk4eFW6qCiKopSjpnTYGExIzoImeBYbSMJ06s4h8zysh2OxgcmRLBZ8Ea4heSHt68KUW0nOIncXrIdfQ5K2tVsr0o9JzCP7EqyAvXDz6Y1wG+YleOuhCWYj+5LoZe3zwaDj8a0VlSBwZ905yHPwWzgSF4wMANeRBO92eBcehGlkdwVgGIwjeSTOq9AEw7HnERsEwH9QB+ZZuG/BC1BP+p5u2w6sxTge52logUcBpCS4aBn+qi8+K4pSgUoLZQOUa0UQB7GRNt+5wxa5QgSxERvJvBWe+VjEAcQWQbJIezY8Ojsox0GyD4Rec6dLZzzipICkvt2TPGmRUUHtuZsiPh0i8rwIwSHncOncFMlVtvYeWSCCtC+q8uwKrBVBXL/2u0WQ9ry/xpKIVA9FpEqLnBweOlzS0Yb8KSjNRpzLJeeE6ZXabot8a8vb/pQI8vHfetdwRVF2IPKqyhCRqEpbuXLl2LFj+0uhDlBWwZjIHAuA1AcM+cf+EWenYw7OZaRdBteU1UBRlG1HXlVZPZ6qMBqau7o/DFIFtt1Yij1XFZiiKGVQHVYFFpQs22jHbT8ep76/RVAUZWCiD7eKoihKraI6TFEURalVVIcpiqIotYrqMEVRFKVWUR2mKIqi1CqqwxRFUZRaRXWYoiiKUqsMPB22gHQC1x14n8gzaH0Z5pL5ItLz2d0yhdQt0AwG7V6fCDcgOZTMSf6X+mu89jm4O/aVymOQ+ml1ZzpgkLq/5xMDdpIxr2x3BuKrusYoTAGQZH+LUowvj+zeF0UNCTZivdWHA5hrscySEbYR9qJtJUPG9EftW8eXMH9GcuA97/UnFtyGOb7nE/PsFGNe2e4MRB1GPi5iY39KUYZGANkVo9clGYODjVgvQ3gNZCb36/Dqw9pHw+gykX92dv6VLXrI3CnGvLLdGXjPlmNIfAcsuIu6IZH0VjgBDBwDxyD7v5FDtweBiR2DzMuR9FWF9NztEbOSgXMCGHgGrkH69UiWZUG6Z5BdUGwznEvd7vAF6r5eIvM7YJC+omob4zeJHwafhHnFd8abwwjLBtlHwtIM2pcCcBHpqwFYiGOE0cp+HwjsGORmV2c6q9RdD0aKWhJJbwEjyMJVYLDZtwWdQfpf4MrwokwPw4+9U2hF6vORPmkFA3cvXGgYGwjwsddT7d1Qtu2VagccODeQ1p4ZGoe7aYhTKMo2aI1awCpl6QYjvHzAJjBoe6nbhvgCXBxU4R5EJhpVfDoZA+YFEnZe11PtKTglLKrLmL8nTD82kng0thGk+xfdNkj9DYD7wijkBqk7I1kWYhvwUNjDnyHdFjlaacwrSi+p9EH7AcdxkkWcFSJrgkAqHX76z8VD0o+KNIucKzbS/pGIiLwvgmTPFK9Z5GERJDU3LArJ+VFaPhT5XCQmy1oRJHOTSLPIXBGk7bnqZFsngqSmVh1FpSwPiIeknxDZIDJTBNn8vyIi8nnpuDkQuxPJicg10nmqeGG9mdtEmkXuF0HaH+uplkrdtUQEycwReUfkOvGQ1tfDLEgWsZ8VWRqEUwki2pwuNmJfLt5rIneJIK1PiYiILbJGZI3IcEmNLe6TTNDJbc+JdIhkwvRuaq9EpbZ3U/s14iCZhSLLRWLiIJtXdtsQv5Y1IteLjWx2I0V1k6USSOeMcPvDSJiebi7iZLER+4XCmM93mFwuNuIg3r0i88Tp8V87WbKI/YpIs8hhkkM6/EA5z4sg2etF1gQxjDpuFxGRoySLyIqgXn8jGIebRdaIrBJBOmZHqviNOEj2YPFWiCwWQTqu6EkqRdla8qqqdnQYkjo/vCVtEPmZpJ0w/drwHFsEafcVz42RP6qIXCM5pDPMEvwbJVB1m/0YWpMlPT4SP2ycdJ7VO7W0RbwvXnO47TdkgYiI3CqdJ4l0BBG5NmdFPh/qYz+w1gdhrkfEfqGnWip1F5I+MdJYwra/XRwU7aFIVLbTJRO9q0ZL9jmuRIuIyAYRpHVlV6nK194NPba9S+12uese6rAeGvKrMjqshyylVNJhlRqyQQTZ/GaYvlYEaX033L1cbGTzRz1VmmetOC3h9suRoo6TtP9gJGEXhTos9VXxROSzkjpfRER2Lw6nZ5fXYZtT4e6FkZIVpa/Jq6qBZ0usxCIGzcM14Ie4bXAZSRMyAO4Xw3MsEBqPBOB3OBMZlLe8H0McMrmSYncDMF8D4PfEn8UI7STecuTRrmHDtiHDMBaCgRi4cVwIjEqHU/cEvBjsGa/ACuxxABwN0Lg7fAV5COckrMO6raJSdzkA7lcj63xXYS4gB7yJgHdwJEsEL14ckuYjtoZuau+GLW17FsA7MtwttmdtRUP6pu1UbsgKgIb9QsPdAbjAu4V8LiT/oepahmNOD02jY3DB80f2UmRG2Bl9sX5Y8MPalRj955Wq7DTUjg47ATZj3Q9PY44ie35PKxDtxbtxAKOnv1R2KmZz8Is1U//OdvRKmI3zA7IvgmDakfvjQcSAReRmwlVYfwHgs0CghKyX4BCMr0OSzrV9KVH/ukD3UPs2bvv2o1JDcriQe70wIM1mBh+0tbUcTu5hcusxBXN1kfaVRG9boCj9SI3oMAf+lewmOB+egaeo+xWpv+P7RcVejJx5ZbhefTbWH+nMT6P+jA3xQSUltwDIKADGYd5Del/wf3tAX7jRV8tM7JNIHIpB8eNrAwC340yEidR9DyDhN2Qx3lyccXATCBYYM7utolJ3WQCxJyIeELfifJUksB8GxF4J03v/XG2VlNNN7d2wpW2vA4g9H+6mt0zqPkE+KFd7pYYciAnuhnA07gt7YtRtVcUONJGbT+JTAHREDh1H7A86W1JqmBrRYRb8FGNf3NdhI8zDAXMXAH7OoGvJLIL1cCXeLJzdAJhGHOKX4L0Lf4AfYc+lIXz+jF9N7jlogr3IgXEEAP9BHZhn4b4FL0A96XuqE68ZDDqn9e7d59OxnsBZBH+GelyIpcO2fxYH3IPhcExIn1q4v8e+iXM/8gE8CyCfjxSYAoOs4VvRQip11xLqf0f2ftgItwB4P8IA9gFIHobzIvwZzq6ijQ40QROsJrYSowmaInfJ3QDqfoD3JjyLneq29jwGtkF78dy6fNsr1W7Bj0leTe4xeAX2qs5K/A40wXsYkHgDmpBUFbnK9vyPScwj+xKs6Fp7+YbsD7uTnERuCayHG5AkHT0YWCvUbgHUnYM8B7+FI3HByARSJVeRewTJQpUvLKfCHgbzPWiC9b0b+QadR/X6uwHKTkulhbIBx/siewd+cTaSjjoF3BakO0jnq5H0l0UQB7GR7G0RZw0ke7AI4vpZXotk+VOQbiPO5ZJzpCrWiSCd03vnANIhMips4A9DD0mfGyMeBEj7XZFc9xUEtrsI3CGCZA6OuB74VOqu+YWi0ksi6e8H7iQuIicV+XR0xot6NVjzfzvo9uiv4LMgIouCE3JIR95noVLtPgdIDmlvLU4s2/ZuardFzgmOupcW+XSUb4hdpqi2hd1m6abn04Xrm7up2FOm0kVMi3ytMIaLxvzlxU4lUcrWvrYw4J27RZD2p8NDcwt/q6p8Ou7t2icZ30n4N5GxISJXSRbpLCthF5DOk7aj85SyQ5BXVYZI0QPQypUrx44d218KdTthkLqZhhn9LUat4ERW+2/DvoqcU5jR1hZCOL1bBWPY/Dd22at/JdrpcSBO+1wGT+1vSZSaIq+qasSWqPQjcXLX4K2HJ+EqnBkRb8/a4nq8g/Beh9dgDFmoUwXW77wDECv9boCiVMeA/NaUMqBYTeJA+Hdc4FKMf++DT231D9/GXAajcMD4FPIi9f0tkcIIkMBvSVG2gp1Sh+l/ZosYjb/g7s++anQOBrArLIZw0NdwQxRFCVFboqIoilKrqA5TFEVRahXVYYqiKEqtojpMURRFqVVUhymKoii1iuowRVEUpVYZeDpsAekErgsGreu2TRUGqVv6tMA1fSRtn7d9IzxU8oH/TBCA2DZIRT/b92AhbHHmb2Hi9wtBe/O/9r+ER3crSi/EKX4jCP1cJjBx2aKiUYYPIl0axyQFvySdK07pPouiKDsBA/H9MGMUpkA0FtFWM4n02yTf7IvXch/APY92l11K9f5e8COSffGR+z5r+5NwKnSQBe/sSLQsB+qxIXYH1jFY+ZeklsE5ZGaT/BIcgrc3Kf+DUjMwo99QeBrvchgX7m7CO4X4N4K9xGgAMnAAuTOxbsZ6FSaT2gPrtLB2cG6j7tNBlno/y944mzBWYNlwBLFdyQrBJ9rfgB/C73Ah8zXq84FCusmiKMpOw0DUYewRbjT2pxRbwFD4f310A+2TtrfAcbgXYb6Psbj40AMIZNYz+FPF6T8iHSf+XQA+JL4bnc/C0bAr7Bo57WtkptLoR35xALJnED81OBgoxCUIpH/F0ATsDZdgno4txIEPATrPou6fgiyWL+0mOp9niP+dzkXUncjH7dQNBuAAvNHEbsC8priB3WRRFGWnYeDZEseQ+A5YcBd1QyLpzQXzlHss6bYwPWrC2gQGbS8BcCGugbuUxDq8LpYusFrgoKC0zCM9ibQYDNzzAAabuAbpfGCLowtmsdbV4fkOGHgHBuXz9cBwl84b7u4JDjkGmZeraLvPw2DQsbgkvZRhYGP+Ekq/3nwR6fNp/FRJ+lJkWvhEsyuA9XzJORuhCfuqokmt948lpy3HhoQ/YXLgaUzI+BEtPwTwdis+vx4epv7AcLfLBDRDbDVM2JIsiqLsNAw8HbY/sUkAXEp93tLlwEiyE3CbsVZh/hmjx0BWczE7MI8iFyfWgdlB/Q2Fg+Yd2NNhDdbJxE+n9eNuizoBMph3A3S2YXZQnwlnXb/BXIO5tMyHi+zPw5+wICOwlDjYKwGYjzcN+zdYzVjnkBgbCYtVtu15Ov1yu292SNkJtgOQGIphIL4Gza97fZbYquIu/aBrbu4mA8mR4W4WoHFCuO51e7ju9SHiD6xNEMdbi5EPyvx3gF3rwqeKPwEwFL5GPP/5r1vIwKD8jKrs9Lb7LIqi7DQMPB1WFgtWYT2OuS8cDLdiLorEaK6UpQHqYR9ogIai23ruWuIXwiiYhwmsrlRKSF3wsO/6ReVvrMNgFBxQJod9PBwF4HwNjgEwPgYHziUzl/jpsC/cRwyMRT13AMCFIDROqe7ksjgAMhv7IYxlWBDbOwwp/EPqniX9F3BgJkCsS4j6DNyAsyCiUxwA9yZYhjWDxPfIPF44ve412I3cxcTmYxBqx08A2A8RewbzUyQm0P43ivg9LMV5dUsMs1uRRVGUHYUBuR5WljrMYdARBMDtZdRXyT/CNwAYHZVP7VtSAIlpuNMKacb67VW7C5BdQOOZQPBB+s1vU/9pOAfjSQZ9CRcErFIj4aN44J4aSRkKEnqLHA7zMK/CmYLlL4yNJjOXuqmwAPJRu8ZFsjRh1hN7DL4bFvgGTKFzDo0HUi1bkUVRlB2IGpmHha5uTiumYM6q2fAfDkBuPmZz4Vd/yfaqvQ5APhHujgCI5W2GD8BmzE1YaQD3kOK8Z5P5NkO7TM6inIu5DhfYDaDjOZJTMQA7NC12IQlgvBnutsIBpM8j8a2qm7MVWRRF2bGoER3WDNB5HZbv6dBWdFDyd+F0ScYkxjq6NzpWS7znU3pmKICsRPYF/7cnsaF9UXI1WADWn8LddwAk+krAUPgE3IsH8sVI+hoA+/Li0ubjGP7EEoBluCMxgXHEwP18mP48DiT9gTaFzGXhHNoB8PYLt3chB8a9VVsGtiKLoig7HDWiw4YDDPo+rISfwY8APH8u9mMS88i+BCtgrxJ1dRxxcJbCa8irvZNhDCYkZ0ETPBu6VrRAE6wDSLwFTRGFWhYLbiU5i9xdsB5+DUna1lYnwHww6Hi85xO7YwH1t5B9BF6DA8hCInxVi1Z4Fi6Dy0jPL55yXV/szeFzDBZYV+Othwfhr3g3YgGTiEFyGt678CT8Anth+ABwEck55BbAevg+AnIyAJfggNdE8v+gBVqQFD3QfZbvYxu0e1vbS4qi1ApSzIoVK2Rg8rgI4iA2IreIIG1tIiKSFhklgthI7iYRpPXFSK7I0cxUsf1EpOPm8ARbBGldVJ0M1xZkaHNFROQocSj6dZ4VlNm+INx4LNhoWxKWMzsox0GyD4hXZQ8sEEHaqxTV5xrJIp1dEmcHHWIjnS2R9IdCkf67WKTNIkjbwnLl/1WEoLTsbWH3isjaQkcVpYvInELb036H2IWU/C81tbii50WQj9rC3R6zXCVZpMPpsYMURalJ8qrKEClyj1i5cuXYsaVvFe0cDMMtnkVlpzJobj8Jo/SGQ8nUYT2jZkZF2THJqyr9j0dYhVlswhr0D/0kidIbHFiO86q++qwoOz6qwyIM628BlD7BAqmZ75QpitIbasSnQ1EURVFKUB2mKIqi1CqqwxRFUZRaRXWYoiiKUquoDlMURVFqFdVhiqIoSq2iOkxRFEWpVQaeDltAOoHrgkHrum1WyxRStwSxofvmq3p/wH6zJHFZEHs69WBx+pVhHOdTyfgBoR0wCiGh/V/aCL/KuKboqGPwcV7mR8DA8wNaPh2p4o6uRQWBp0sqav9LsWyr8J4q18AU/JJ0bgu7RVEUZVsyEN9xNkZhCoBsyw8tyJBgI9abWGSb4E64HhfSi4jvFzm0FCbhHkjsJyQPi6RfjzML779JJOBY7AtwHsKyYA2mEzntELybw0/l/h2A32D6wZ0TNPrPHmvgdDJzSR5H7GGsL9O+nsGfAuA9XEj8NigsmX992wFwbqMu/NRv/WgAMjAfpuFBZiqDJkQkeQN+CL/DhczXqO8m/IqiKMr2ZSDqMPYIN7bltxaMMHR9zOxFKZfiLMS8F/Oi4nQHJtE5lcRcDD8mZD79R2Rvp2ESAEuon8Tmu9llMIyKZH8DwL0g3P0AG3Kn0hAWFOi2WWTAnArADLia2AKYAUAT7qnIqUGgtUK4tQ8BOs+i7p+ChGAEPIo3De9GrH8raeMBeKOJ3YB5TbW9oiiKsn0YeLbEMSS+AxbcRd2QSLoDFwcmOPcgMh8BkAGDzMTQ5vZGxHC3EMeA4wLTmT0jPMfnm8QPg0/CvJK4YA4Y2NHIWN0wH0swzi1JXw6Qu6H8M4I3OtwaDxB7o+SM68iMZ1A+kvK7eGCV6tr78L4dyt8CYDwRRud6AUaWixT6IYC3W0n6KRiC9YNy4maIrYYJ5Q4piqL0KwNPh+1PzJ+jXEp99K79VZx7cV7AWoO5mtiuZIEkrCb5FNnHwYEDyH6BxDeCHDHITMLNYC4l/hPseyKlnUBiPxgK55VXMwKxakJn1lVIX4YNu8wMFqtys4maCVkfbjgAxsfFeVthIfaNEcHeIgZ1vv42yPwtIqdv2VsFw/HAyH93/wMSt5SsuhGYJXetw/PXyfLxMJOVQ2NXaqOiKEp/M/B0WFk2wu9JvYl1GIyCtSQg+x4Ao+FGBp0MU3HAfqIwrxLIXIFZB/8M38CcRrZiBREsEBJSrEG3lPeIgfMasoLYbBLTySwOC59M3TTS70ErfAEXvC7Lfg9iQ2x8JOVArD3w/oi1GBNie5OO6teHYQyd84lNjiROwTgDXsC6H+tR5Jvh/OwTAPZDxJ7B/BSJCbRHNKKiKEptUSM6bAVAw36hN90BuMC74dGriIE7j/QSGitFSzkGEzLbLbDvh7iQfRJjLHwXPos5K9QiD5CAxB64u+DsjRlZmQu4jNzthaUvgG9hbCQ2Ab4Cq0lA7vXgSN0svLNIv8igbxQX8hixX8NhcD7cSvxXtPltHwdC/CwYD02YEHtsW7RfURRlezAgfTpKyeFC7nUGRZziBu/Z9Szjo+0pU7fsAVFvkeMxZuP4vhhDQTBbkMEYa+G/8EZEMj4D4HZRSFH2B4i9DwcCeOC8S73voJFBdi+X5XAs8LJQX5yeBDBKXwlQFEWpEWpkHnYgJrgbYN/wtydGfp3mKmwwf8qgs2h/r0IJj+NCcrs19yjikG0Pd59FJhY/LwzDaIBLye5LQ3QedjHpiRFvDgIfk1R+trQRwBsOwIW4cczQw9D35jcI3ntr+3uYvg4HYn53TSFzWTgjdAC86PsAiqIoNUWN6LD9YXeSk8gtgfVwA5Kkw3/fdhncQeZpuIIY1O1BOsxkQP13YD3Mg9/j3Fedd4IDBjmjeM1pSzkWA+qPwnsd5sFynGsjThMb4b9gH9zl2H+IOEZuhCbsmcXazoILSZyC8xw0wafJgfU5AK6g3sa9B1rgTgDX95AcAZA8Eu91eAEuInc+Q/xLfRHJOeQWwHr4PgJyci+aCRh0HkVvXrFTFEXZamrElgi8Q/x8OB4XBJyVNCYgBUeSPo/6owHYQGIvUnfCdwEE6v4P9sEB+T6JC7orvgsGeL3x6bBgA3V74Y3CAfduGo+OHL0SdyHGaNwmGqPToDvJgXlESWl3E7dhfODcKG+Fq2WjYSHJ0/FAwF4SvuAMbCAxEkbhgHEy5pxQg06GOdSdja+gi7JsLcYuvS1BURRl6zBEip6hV65cOXbs2P6Spi9ZiHsG7S671MhUsyZxIE77XAZP7W9JFEXZmcirKr3BK73gHYDY1/tZCkVRdlpqx5aoDEBGgNDQ31IoirLTsuPqsNMxBV2pURRF2YFRW6KiKIpSq6gOUxRFUWoV1WGKoihKraI6TFEURalVVIcpiqIotYrqMEVRFKVWGXg6bAHpBK4LBq3rSo7OwTVo730IlSmkbgm+jdsHpQF/wC79APwyMCKhpfNcWRKd0gniTUd/aSOMPb2m6Khj8HFe5keCMJuOQebpSBV3dC0qiJ3WHIjkGDjTsUu/CbkK76nilMVBFZ5BdoF+GlFRlAHEQHw/zBiFKQCSLDn2Jcyfbcnn5yeRfpvkm2WCFMuQYCPWm7vyJrgTrseF9CLi0Y8fLoVJuAcS+wnJwyLp1+PMwvtvEgk4FvsCnIewLFiDGQ32fAjezeHngP0v0P8G0/9MYoJGvwfWwOlk5pI8jtjDWF+mfX34/cP3cCHx26Cw5DAAUjAS+xTMm7FWw2mkhhOfAUAG5sM0PMhMZdCEUIxVcCKZ2SRPhEeoO5u2EQw5tBc9piiK0ncMRB3mB98CaCw5NBpGRz703gvykSdjvfm276U4CzHvxbyoON2BSXROJTEP3TmGAAAbYUlEQVQXA8xo+o/I3k7DJACWUD+JzXezy2AYFcn+BoCb/0jxB9iQO7UQGDPogVlkwPS/VTgDria2AHyd1IR7KnJqoLwDFb4Ygc4HGToI9oNLiF9Negb1wKN40/BuxPq34obcSAbM7xaqsH4FqsMURRkYDDxb4hgS3wEL7qIunCpFTW22QWvU+peCUwLjmGuQDgMccyGugbuUxDo8/9DVkVzfJH4YfBLmlWhEBwxsg1Q10s7HEoxzS9KXA+RuKP+M4I0Ot8YDxN4oOeM6MuMjUcTexQOrVNfeh/ftUP4WAOOJ0Nb3AowsmX2OwfgDDYPC3WjcslMwBOsHJVVcSXxF3zw0KIqi9DkDT4ftT8yfo1xKff6ubcE6zDWY15fcl88m9xjOK1jNmIdhjSLlr/HMxezAPIpcnFgHZgf1N0RynUBiPxgK55VXMwKxauKHVYpItgwbdpkZrCTlZhM1E7I+3HAAjI+L87bCQuwbI4K9RQzqQj2d+VtETj+w9SoYjgfGB+GBD0jcUrLqNgJOCovNwK04M8PYzsky5laAIzDzYQyaAZzzKjRZURRluzPwdFglRsAo2Lsk/RbMFqyDYF+4mzi4/n3cggaoh32gARqqtptaICQkokG3gveIgfMasoLYbBLTySwOC59M3TTS70ErfAEXvC7Lfg9iQ2x8JOVArD3w/oi1GBNiexfH53wYxtA5n9jkSOIUjDPgBaz7sR5Fvlnii3EFNnhXVt0iB0aS/QL1akhUFGXAUDs6rBLDMaeHlsYxuOD1Jv5yX/EhLmSfxBgL34XPYs4KtcgDJCCxB+4uOHtjRlbmAi4jd3th6QvgWxgbiU2Ar8BqEpALTaZ1s/DOIv0ig75RXMhjxH4Nh8H5cCvxX9EWNcDOh1+QW0njIKrlbGxw/kvtioqiDCBqX4cdTu5hcusxBXM1vZk79SV7QNRb5HiMP4bmxKEgmO8T68C6HsAbEcn4DIDbRSFF2R8g9n6w50Hu3XBulEF2L5flcCzwsuHucjiX1AIaxlTdnNnIQnJv0jCk53MVRVG2GzWuwxxoIjefhO9Q3lFyQhJjHf0wMTuKOGTbw91nkYnFtsxhGA1wKdl9aYjOwy4mPTHizUHgY5J6LNzdCOANB+BC3DjmP4WHlsIkDIKXwNr+Hqavw4GYv3TXAoeSvoZBZ1bdlj/BdFJP0TCy6iyKoijbhdrRYe9AE7yHAYk3oAlJBUtcdecgz8Fv4UhcMDKRXMcRB2cpvIa8Wl1FDhjkjOI1py3lWAyoPwrvdZgHy3GujThNbIT/gn1wl2P/IWKd2whN2DOLtZ0FF5I4Bec5aIJPkwPrcwBcQb2New+0wJ0Aru8hOQIgeSTe6/ACXETufIbEIAPDyUL8MowWaIEW3O6b2QwTSF9D4+eC82kpXloz6DxKX3xWFKV/GJDvh5XiwKcL06nEKFzoXMjg02At8QPwxuMBd2N+E/N9yM8YLsL8D8xJOOBOxZxbbYMN8Hpjl7RgA3V74Y3CAfduGo+OHL0SdyHGaNwmGqOvRd9JDswjSkq7m7gN4wNrpLwVrpaNhoUkT8cDAXtJ+IIzsIHESBiFA8bJmHMwgJcC0RhW6MzUIoacULkhc3EhcQNuxKuzrY1/iMwdDY00qihKP2GIFD1Dr1y5cuzYsZXOVpQiHIjTPpfBU/tbEkVRdibyqqp2bInKAOQdgNjX+1kKRVF2WmrElqgMTEaA0NDfUiiKstOi8zBFURSlVlEdpiiKotQqqsMURVGUWkV1mKIoilKrqA5TFEVRahXVYYqiKEqtojpMURRFqVUGng5bQDqB64JB67pyJxh03lAuvRKHkjmpOAQlMIXULcG3cdu9stmqplJRm2AfxI9COR07/3GnZjDC6JTRdODBQrjqaKBLgI0wAQzSXy3+OGGlLG8UaukagdNnPhh0PF6S3gwGnRdsSQ9sHS1g0PZyuLuq0JDsgi35AGMlgR0wyFaKxx2tPRoK/CDSH21hQ6rnuvC6l17f6onENM//0ga2f/TmwtH06pK8LVAfnJC5LOzkSM9nlkZOboUjQoHPDMOo9siyYOClHix3tHTU3dG1IYV6Ko15n+4H6hTS+0Vy9eH/XRlgDMR3nI1RmAIgyXKH5xI/uDhlI+xF20qGlA0mci2WWaadEoYRifX6g7Xli9qNHBgriL8Np5H6DPHvQgpGYp+CeTPWajiN1HDiMwBYBueQmU3yS3AI3t6knPC7iBthLxww/5O68ZFvB1fKkoEDyJ2JdTPWqzCZ1B5Yp0Vka4VzK3zOf2R/fOY/BWPITiBxJ8bvMM+mbf8KV7OUSgLfSrU3q71xNmGswLLhCGK7kpWKAbq3njl4M3H+SGIfOBtvb9LOVsVZtWANZvSp5BC8m4kD9yE/IPcQdYfB94gfRHuWwYnImcPJgfk/mI0Y9RhAK4zBPgXrBow5xCbR+r8M/TQAh2M3EXsNy4ZDsJPIvArBvvMshUm4BxL7CcnDSo6WHXXv4ULit8FecliYXmnM59nCgdqH/3dlYCHFrFixQvqXhyR9oogtgnz8UXVZNoggrSu3pJbJ0jFfZJ0I0rk1UvZUVFoEaV0U7n5DMkhGRH4jHrI5FaZfItl8ruOkMy62v/2hCLL56fC04ySLpDMlVVfK8ph4yOZsoZY0kotmvFCynxFB2h8rLvBx8RBBUudvWR9sDe9HrtpTxZcb6ZxRXSGVBN4ggsg4ySId3dfubzwfpi8SQT5q29LGVAHScXO4/aEI0vpiXxS7VgRp/SCoovMs8fz0zcXtkuA/1T6/OPsDYkeHSr7nu0i4qHhElcUWQVJTwwFZStlRN1k6Tw1ljlJpzPv0OFAnS+fISLF9+H9XBgZ5VTXwbIljSHwHLLiLumjExeUFi0fnZWFiKxi4e+FCw1hcA8fgY//x+53C+anPl9givkn8MPgkzCsJTOyAgV3JBlVK2aL8R8T8PHLXQuuMP9CQj54cjRy2FJkWzhd3BbCeByADS8k9RrJ0alApy3JsSCTC5jyNCZn8rGQV3EfuyZLSUjCFzoXVtDlkGRh4Bl4XA2AL7FPOXurAucF18a6JlONA8bTby1VRezcCT6RzKvxLcWLZ2uvhYeoPDHfLTv3LErHaZR+JtH1x0CeOgXNNaOJzANx8LesArFXhbqVurIbryIwPA86lqX8gnLJYAEYurN3AjeNC/TmBzK2+HfVtvPxQAS6An+KEErr7h+mvYwDruxV4OUDuhgq2nUqj7gUYWTLN6mbMU/m6h7cIx4DfFx/q5v+u1DqVlNuAIy2yRmSNCJL6diQ9EzyKtj0n0iGSf3Czw/OHS2psuQe9StgiSBbpdHon8O6SQTIpkbdFkI7ZJSekRZDUzHD3s5IeH5ET6bhCRERWiyDurSKIg9hfizycVspySTjt+1AEcREb2exGTrs5fCqPPhFPD3NVOQ9bK4JkbhJpFpkbXoKwXZkJ4jSJ/Km4jT8WB8ksFFkVNCeYh3WIIJ3XiO0EM6GqZtWVBF4igrS3ivy4eB5WqfYox0kaqfT0X+AB8ZD0EyIbRGaKIJv/V0SCa52+TWSjyO9FkI77Cn3S+pSIiNwngnhI++xuu7EaNosgbU+XpNsil4qDtOVnTpng5I77gr9JMGx+LjbSlh8bF4RdukQE+TArYoucIy4iyOZXuxV4luQQuSwYctk7iidklUYd4iCC2Ih9Sji2uxnzUuG6bxZBsgeL94rI/SJIx35b8q9Xao28qqodHZaniw6TnmyJx22hDusr3g/+gQ4Rg2GUSySHtOftig+Ih6SeFrFFro9YdZ4K/uHO/wS3xdS3w+ZUynKJZAj0ffZikfniIB/796m7xUY6syV3k7WRG3GVOmyypMdH7lPjQkPWQ+Ii7fm7588l5z8Q2CJIR16fdblqTxW6KzWziutVSeC0CNLhW8yiOqz72n0eF0HaX62i7e+L1xxu+z25QEREOkRWRfpkd0l9VbxQqrYlIpeKi6RXiiAdt4tI5W6shp9LDuno8rDl3/dLdWFUzjxviyCpm8WW4OmhM6LD2t8Nxp73SqS7Kgl8lTiIfYx4K0RmiyDteVt6pVEnIlPEPUPkhUDxdJ4nnnQ75itd93vFiVrpjyu2JSo7HKrDtjG2CJJD3BdEFgdzkSIZHhBBOrrIfE7hBlS4x/nzknfDc2YVPziXzXJJsJueGygVx5+HfSiCtD9VkLBwN0E6Z4QSdtFhoWoJFMxt5dNdJJUUW0QuLEr3ZfvYDSZbhUW+6HrY+yJIdrrIKyJ3Fc8tKtdeXuBrJJd/YojqsG5q91krgqTmFF+RSrWLyE3BdMo/VFhnWlRId5HOkwo6zENsJN0SlBzMwyp1Y/e1hycEVzzKBpFVIieL7SuhPGV1mATzQgfJIYJ0jhRbAh0mSPZMyTlBdwXzsEoCXyDZqEL9rHROFE+6HXVduDU0GHQz5itd97ztwWey6rAdnLyqGoh+iTsCywFSH7CLv1DxEPVn0/Z9hibCo+eSWkBDF9e7B+BnmC4MgnrcQ4BgzczNr5wdhEXEV75slt0AOp6j8UgAbMR/i2IuLiQnFBy6kieTOYTkPQDxW/BuCdLr5uHMo8NllxhswIz4VSd3K2xnpzJoRmG3vhEDyGFDvJmCz53F0HDhtfwC7FxyYM8iARwEf8aaiJ0jToXal5cXOJVl6A3EIGHgggEmmAZtKxmyX+XagVY4gPR5JL5VnF6p7bNxfoD7IolDMR0Kayxr4EQyD2CdjWUGF8LvAcA+Evkzybrg+sXqg4Plu7Gb2n2eAXC/UdKWPWFPWIgVJ7YIegxPegGcg9lCbE8w8E7CAoYApGcT/y4WkPEl6FbgPQBi+at+PMZsHIhXGHXWyyUrZ4djgZetPOYrXPcOl11AoDeh15UaZYfQYX4jyrwD1X90ApFb2yAgXPpugUNJX8OgM8tlHArAHDyQLwJwEED8JTgWgLXYXS5baZZxxMD9fHjC8ziQjMG3MM8IEx3Yn8451H8VhkJzpMwRZCaQvDdUPHsWCVhQA+Mw7yE9l+BWnAnvcUcQf5DOwQz+x/DMLAb47uqxVXB0Sas/Ki65kZgdesaXrX10eYGHJOBtzPzN8ibse5G3aNg76P3ytTuwCzkw7i35P1Rq+0zsk0geikHxwPsjNrhnk/TvppvCdF+HTaHBd1JIATj+A0elbuymdp+LSU8MvTl8DDJzSHZRw9VgwZ4YawDccwAYCZA7KpTqdQD27lbgo4hDZzv1vu55FpmIRcVRZwDNMJK2Dxjit2IdDsTqKo/5Ctd9aAwOxfoF6Rzx6LsEys5ApQnawKXUlmgHTgRuk8gzkusIE98QeUNkuKQJtit6/ZaU1lufjg4RJHOiuE0iy0SQ9CGSk9DfAbFbRN4Pfk6+os0iz4h8O7Ki43O65JDcCyLPRBa9usni13KeuBtFloogbQvLN7O8VafK9bCXAluT0xy0MTU3FAnJIfYrImtEjpH0hLDnfyw20vmaSIfIGeLmrXkviSCZ20TeEXlEpKwLTDdUErjEp6N87ReJjaSbClfEK++PH+ESySG5JwKnFSff9iUiSGaOyDKRqSJIxz8XvCdcJP2cyNsiX4qY3Sp1Y/f49vPnixOni41k/yjyjsgM8ZC29ZGjlWyJtshykdtFkPSpkXcwxkkOyTUFC6uFVbpKAvt/w4PFfS1Y3CrvbFLi05H9jLivhUWdH9bSzZiP5O3i05GZLnYmkLBan46rJBc1zis1wo61HiaBAd236Xe8KSLBYnWXhZmPP6ii/HApq8f7WA+sDlYUbMT+inS2iojIX8pIVXiN7KHQB+S/i/9+tsjJQVG5iyUdVa6VsqwtrJNlbyunvHuvwyS4g/t+j87lkssL9nZh+cc5PFwBksDJzW+Ie07xitQjQXe5SO764rfZeqRKHVa2drvMFUlN7anGDpFR4cX9oYjvp+dzbeiPcIzIeeIcGFmk+X54CMm8FSmtUjd2w1XlXn2zRS4KinKQ9P+UHC2rw94Pu/0OsaNVbxY5vDCAizwDKwm8oZCeubucCikddRtEkmG3nCyZVOTMSmM+T5fr/lKhdn9hr0odli31i1EGPHlVZYgUvY6ycuXKsWPH9teksCoMUjNpuKbnExVFUXrgUDJ1WM/sGMsqOxF5VVU7F24jpOAxAOfE/hZGUZQdAAeW47y6Ba+2KwON2tFhe+GCgHt31V/SUxRF6QYLhMb+lkLpDbWjwyRwnK0diRVFUZRty8D7XqKiKIqiVIfqMEVRFKVWUR2mKIqi1CqqwxRFUZRaRXWYoiiKUquoDlMURVFqlYGnwxaQTuC6YNC6rr+F2UZMIXULNINBu9fz6d3RfXdthIfCUMI+zWCUi7CcgVOCdPcgMh+VF9s12PxxJGW3ICiw/0tfHTm0LKgo9WCY8tdC4OP8r/O68OiqSFjkaCzjTXBQIFju9nIfdl6F91RxyhuFNuZmF2fpw55XFGUAMBDftjJGYQoUB6ffwZAhwUZsyyLPl6F8dz0Jp0IHWfDODj+gn4KR2Kdg3oy1Gk4jNZy4H0RjCvZSjGexGuAQ7AnYLxdHbV9eEt8d2IR3CvEw/EdidJi+FCbhHkjsJyQPCxMPhVWR6BgfwbHYp4SCjSE7gcSdGL/DPJu2/cM32XfDAWMF1qtwAR170Oh/7z8D82EaHmSmMmhCWGwGDiB3JtbNWK/CZFJ7YJ1WELkPe15RlH5n4M3DCAIRATvwC/RGGBsp1vuQR6Xd1QLH4X4NTggjUfksRqDzQWL7wVfhEuJXkwYcWEpmIdYX4GB4jLpVpHKRjA4civfl4vhMDkD2DDg1+Jn7hemT6JyKvIpxPOYnwvOTcHDk9zoOJHxF9QJAeiHG5+AagPivAdgIkFqJORbOh+nEzyKIqPUo3jScG0tG8BIE0r8itjf8C1yCeXrRTLQve15RlP5m4OmwMSS+AxbcRV34yEwGDNr/Eu4uxDXYnLcF3RCYoTyDbNSs1AL7lLObAb4V69tBxqDkM0j/C1wZyZI/P2KCc48l3QbAfdhGaAGbHmykllZR+zeJHwafhHnFcx3AAQPb8CNMbW13DQMb85cwtuvJxh9oGBTu5mMMWpChMT9Z6SoTzMGB2A1l6vf+sSRpOUDuhp7m+JeRy8egcqB4Hun5GnQjgIwIU/+ZBKT9634KhmD9oEztNiQSYbFPY0ImP1S66XlFUWqQgafD9ic2CYBLqa/mSfk+5FoyT2A2E7uIxETa3gMgA8PJjsBtwvoT1mzsm4ry1c3E/Sv8J+YvSXw2SIw/geMhr2HdhTWb9J8AcGAk2Qm4zVirMP+McXawYBODzHOYhyKzyTyH+TnMSdg91n4Cif1gKJxX/kYvEHPLHai+u8qWOwJOCo9k4FacmaEWqQtnbJvgRHJfoCEfS7AFptP5YhDEskAWoHFCyWLVMmzYZSYYeKUrUj5+DOJ8FNDxAMkbcVxYDPlIjLsAGC2FfAaIPxFLFk8x83wYBq3eBHG8tRhQWPnqqecVRaktBp4O21JexQY5HvaFX2DcSZ2vXh7FA3sx5n5wDPyc+LWkI4rBBudVOBsuom73INEF9w6Mz8GlANb/AGDBKqzHMfeFg+FWzEV0ugAeuIfBeXjgHgkXEPMnFT3VXhELhIRUp797wxXY4F0ZSWkBA3c3bHCeiExTziB9KoMOLSnBAXBvgmVYM0h8j8zjALxHDJzXkBXEZpOYTmZxSd6LSZ9FY34i2ABPUX8DhoV7Ip0zGezbGEcAJE8nm4VmOBEHvCp6pu412I3cxcTmY4CufCnKjkrtP4xOJzEb14KL8M7C+044W/gjAvV15BWHAVkjnHaAewUNJYV58WITU949rw5zGHQEpfV8T+yp9n5mPvyC3EoaB0USh8E6zA8wvwifIC3UA8/AX3E+KCf5UJCwuw6HeZhX4UzB+hAX7CdpMGEs3IU5C4muzG2EJuwFkTJbYAK56SQugGcZ9C3aj2bw0WDBy9SNwU3igDUOYzlmT2PWBEaTmUvdVFgAVJixKYpS+9T+PGwfsDEXg0tsImKQ6gQghw00Y4Y/6x2Gbl1zQ1c3pxVTMGdVcU/sw9r7nOVwLqkFNJSGsBkB42Etccj5nvpH4cKg3XEN3ENxofETpO4sV+y5mOtwCXxMCh4Tx2P8sdiceCc5iEdrn0sO7FlwEFwKp2NNDBcjDwHB3IDhwKk4UN99N+4G0PEcyakYgB2aFhVF2RGpkX+3BWDk30zKRA7dif0UfAXuh83EwfMtV0cQh87BsG/4G7a1z+PNAJ3XYflOE21VZOnD2vuWFjiU9DUMOjOSuAkMOlaHu9GJzvsFNWwuwITci9SfB8B8nKjvyTLckZjAUcQh2x6mP4tMjBTpr8PNLZ7YfQTRsdhIzKbo9a09MTPwbzi3d12V68o4YuB+Ptx9HgeSNTLMFUXZUmrkz20BJE7Gex2ehHMj1ry1GMfjPA0t8CiA7AvANzAhuTvOq/AaHEvmxHLOBdUwHGDQ92El/Ax+BOB1r5G2unYHDHJGdYtnW4rvaQLxyzBaoAVacF3YFSBxEM6r8BZ8mRwkPgPAsIgaHgGQG0FsKADHYIF1Nd56eBD+incjFnAsBtQfhfc6zIPlONdG9PejSNSbw+cbJCB2O6yH38L9OLMjuuoN+E9oJAdc0lMbJxGD5DS8d+FJ+AX2QnVBVJQdltpZD1tHYiTeKFww/w3rxjD9Z1gx+HKw8uQ+ELoDDIW3iX8aORgHjMPh8a1t7a7wOIkpuA8jYN1CfAaZ7p3fe1e7UZ3nwhbzEviXfFhhoS61iCEnwPskjoCDcSAG3voqnEr2hL9SdxTcggPebdT53vkWbKBuL7xROODeTePRkVxnkz4/4s3hMw4eoe40+B4euNeT+G7k6AF4IBchP428GFCJJKyl7gDcXwVS1Z/WUxZFUWoWQ6TIQWHlypVjx46tdLaiKIqi9Dt5VVUjtkRFURRFKUF1mKIoilKrqA5TFEVRahXVYYqiKEqtojpMURRFqVVUhymKoii1iuowRVEUpVZRHaYoiqLUKqrDFEVRlFplG+uwVWCQWdrziYqiKIqypWxjHXYIPEVyEm1/37b1KIqiKDsh296WeDSAqVMxRVEUpa/Z9jrM/1r7Rz2cpSiKoihbyvby6djKyF2KoiiKUpHtosMuJP6vZHQqpiiKovQp20WH3U0C4rvS8fj2qE1RFEXZSdgucZwX4IH3BPUTt0dtiqIoyk7CdtFh55KdQf2J26MqRVEUZedhO/l0eP+0fepRFEVRdiK2vQ5zACS+zetRFEVRdja2kw7z9t7m9SiKoig7G9tehy1AwPjyNq9HURRF2dnY9t/8vZDMiwwetG3rURRFUXZCtrFf4iEg1G/bOhRFUZSdFI0fpiiKotQq/x8kRqmjTLJ+ZQAAAABJRU5ErkJggg==;" parent="1" vertex="1">
          <mxGeometry x="-416.25" y="280" width="446.25" height="252.13" as="geometry" />
        </mxCell>
        <mxCell id="Ha-Y4J2D7QacQvaphWNC-6" style="edgeStyle=orthogonalEdgeStyle;rounded=0;orthogonalLoop=1;jettySize=auto;html=1;" edge="1" parent="1" source="Ha-Y4J2D7QacQvaphWNC-1" target="Ha-Y4J2D7QacQvaphWNC-4">
          <mxGeometry relative="1" as="geometry" />
        </mxCell>
        <mxCell id="Ha-Y4J2D7QacQvaphWNC-1" value="Totem-Food-Payment-Service" style="sketch=0;html=1;dashed=0;whitespace=wrap;fillColor=#2875E2;strokeColor=#ffffff;points=[[0.005,0.63,0],[0.1,0.2,0],[0.9,0.2,0],[0.5,0,0],[0.995,0.63,0],[0.72,0.99,0],[0.5,1,0],[0.28,0.99,0]];verticalLabelPosition=bottom;align=center;verticalAlign=top;shape=mxgraph.kubernetes.icon;prIcon=pod" vertex="1" parent="1">
          <mxGeometry x="1247" y="618.5" width="50" height="48" as="geometry" />
        </mxCell>
        <mxCell id="Ha-Y4J2D7QacQvaphWNC-2" value="Totem-Food-Order-Service" style="sketch=0;html=1;dashed=0;whitespace=wrap;fillColor=#2875E2;strokeColor=#ffffff;points=[[0.005,0.63,0],[0.1,0.2,0],[0.9,0.2,0],[0.5,0,0],[0.995,0.63,0],[0.72,0.99,0],[0.5,1,0],[0.28,0.99,0]];verticalLabelPosition=bottom;align=center;verticalAlign=top;shape=mxgraph.kubernetes.icon;prIcon=pod" vertex="1" parent="1">
          <mxGeometry x="1247" y="708.5" width="50" height="48" as="geometry" />
        </mxCell>
        <mxCell id="Ha-Y4J2D7QacQvaphWNC-4" value="Payment" style="html=1;whiteSpace=wrap;strokeColor=none;fillColor=#0079D6;labelPosition=center;verticalLabelPosition=middle;verticalAlign=top;align=center;fontSize=12;outlineConnect=0;spacingTop=-6;fontColor=#FFFFFF;sketch=0;shape=mxgraph.sitemap.payment;" vertex="1" parent="1">
          <mxGeometry x="1426" y="606.75" width="120" height="70" as="geometry" />
        </mxCell>
        <mxCell id="Ha-Y4J2D7QacQvaphWNC-5" value="&lt;b&gt;Mercado Pago&lt;/b&gt;" style="text;html=1;align=center;verticalAlign=middle;resizable=0;points=[];autosize=1;strokeColor=none;fillColor=none;" vertex="1" parent="1">
          <mxGeometry x="1426" y="573.25" width="110" height="30" as="geometry" />
        </mxCell>
        <mxCell id="Ha-Y4J2D7QacQvaphWNC-7" style="edgeStyle=orthogonalEdgeStyle;rounded=0;orthogonalLoop=1;jettySize=auto;html=1;entryX=0.5;entryY=0;entryDx=0;entryDy=0;entryPerimeter=0;startArrow=classicThin;startFill=1;" edge="1" parent="1" source="ck7Lqkc2XtPYcN9EQe9T-11" target="Ha-Y4J2D7QacQvaphWNC-1">
          <mxGeometry relative="1" as="geometry" />
        </mxCell>
        <mxCell id="Ha-Y4J2D7QacQvaphWNC-8" style="edgeStyle=orthogonalEdgeStyle;rounded=0;orthogonalLoop=1;jettySize=auto;html=1;exitX=0.5;exitY=1;exitDx=0;exitDy=0;exitPerimeter=0;entryX=0.5;entryY=0;entryDx=0;entryDy=0;entryPerimeter=0;startArrow=classic;startFill=1;" edge="1" parent="1" source="Ha-Y4J2D7QacQvaphWNC-1" target="Ha-Y4J2D7QacQvaphWNC-2">
          <mxGeometry relative="1" as="geometry">
            <mxPoint x="1272" y="683.5" as="targetPoint" />
          </mxGeometry>
        </mxCell>
        <mxCell id="Ha-Y4J2D7QacQvaphWNC-9" style="edgeStyle=orthogonalEdgeStyle;rounded=0;orthogonalLoop=1;jettySize=auto;html=1;exitX=1;exitY=0.5;exitDx=0;exitDy=0;exitPerimeter=0;entryX=0.005;entryY=0.63;entryDx=0;entryDy=0;entryPerimeter=0;" edge="1" parent="1" source="ck7Lqkc2XtPYcN9EQe9T-2" target="Ha-Y4J2D7QacQvaphWNC-1">
          <mxGeometry relative="1" as="geometry" />
        </mxCell>
        <mxCell id="Ha-Y4J2D7QacQvaphWNC-10" style="edgeStyle=orthogonalEdgeStyle;rounded=0;orthogonalLoop=1;jettySize=auto;html=1;exitX=1;exitY=0.5;exitDx=0;exitDy=0;exitPerimeter=0;entryX=0.005;entryY=0.63;entryDx=0;entryDy=0;entryPerimeter=0;" edge="1" parent="1" source="ck7Lqkc2XtPYcN9EQe9T-2" target="Ha-Y4J2D7QacQvaphWNC-2">
          <mxGeometry relative="1" as="geometry" />
        </mxCell>
      </root>
    </mxGraphModel>
  </diagram>
</mxfile>
